<?xml version="1.0" encoding="UTF-8"?>
<svg version="1.1" xmlns="http://www.w3.org/2000/svg" width="256" height="256">
<path d="M0 0 C84.48 0 168.96 0 256 0 C256 84.48 256 168.96 256 256 C171.52 256 87.04 256 0 256 C0 171.52 0 87.04 0 0 Z " fill="#FEFDFE" transform="translate(0,0)"/>
<path d="M0 0 C5.62818591 0 5.62818591 0 8.69921875 1.6796875 C9.35083984 2.03160156 10.00246094 2.38351563 10.67382812 2.74609375 C11.33833984 3.11863281 12.00285156 3.49117187 12.6875 3.875 C13.36361328 4.23980469 14.03972656 4.60460937 14.73632812 4.98046875 C17.44966183 6.46537774 19.80212375 7.80212375 22 10 C23.98821313 10.39764263 25.98944339 10.73775349 28 11 C28 11.66 28 12.32 28 13 C28.556875 13.12375 29.11375 13.2475 29.6875 13.375 C32.28715346 14.07760904 34.598062 14.76657238 37 16 C37.8125 18.125 37.8125 18.125 38 20 C40.31 20.66 42.62 21.32 45 22 C45 22.66 45 23.32 45 24 C45.86625 24.268125 46.7325 24.53625 47.625 24.8125 C50.93900802 25.97853986 53.88527329 27.38034211 57 29 C57.65355469 29.31066406 58.30710937 29.62132813 58.98046875 29.94140625 C62.09141287 31.42975663 64.75844501 32.80180104 67.4375 35 C69.72725934 36.78712924 71.49310169 37.74770904 74.125 38.875 C79.57427798 41.2503263 84.78137005 44.15347457 90 47 C90 89.9 90 132.8 90 177 C81 177 81 177 78 175 C78 174.34 78 173.68 78 173 C77.47019531 172.73960937 76.94039062 172.47921875 76.39453125 172.2109375 C68.80943155 168.37507957 61.34782853 164.27199333 54 160 C54 159.34 54 158.68 54 158 C51.69 157.34 49.38 156.68 47 156 C41.39 152.7 35.78 149.4 30 146 C30 167.12 30 188.24 30 210 C20.61904762 208.82738095 20.61904762 208.82738095 17 206 C17 205.34 17 204.68 17 204 C15.75863281 203.64550781 14.51726562 203.29101562 13.23828125 202.92578125 C7.06315222 200.86499039 1.73091865 197.5487475 -3.8125 194.1875 C-10.87581327 189.93680987 -17.95491673 185.95704906 -25.35913086 182.32885742 C-28.51094341 180.74289868 -31.41475541 178.98057629 -34.375 177.0625 C-40.05588413 173.48285855 -45.8457579 170.50406851 -51.90625 167.640625 C-52.9271875 167.09921875 -53.948125 166.5578125 -55 166 C-55.87710129 165.56544495 -56.75420258 165.13088989 -57.65788269 164.6831665 C-61.5545068 160.2191325 -60.6519011 155.14773865 -60.56762695 149.42871094 C-60.56835709 148.14065552 -60.56908722 146.8526001 -60.56983948 145.5255127 C-60.57127396 141.99658733 -60.54188058 138.46851189 -60.50696969 134.93978405 C-60.47571072 131.25093585 -60.47277584 127.56206811 -60.46684265 123.87310791 C-60.45130274 116.88902446 -60.41027268 109.9053324 -60.3600952 102.92142129 C-60.30420601 94.96990277 -60.27671637 87.01836555 -60.25161803 79.0666995 C-60.19935661 62.71090389 -60.11141195 46.35550189 -60 30 C-58.35 29.67 -56.7 29.34 -55 29 C-55 29.66 -55 30.32 -55 31 C-54.13375 31.268125 -53.2675 31.53625 -52.375 31.8125 C-49.08208036 32.97111987 -46.08872125 34.38209839 -43 36 C-43 36.66 -43 37.32 -43 38 C-42.195625 38.04125 -41.39125 38.0825 -40.5625 38.125 C-36.35007088 39.15963171 -33.70228682 41.02872028 -30.19140625 43.5 C-27.55536721 45.30434758 -24.89523474 46.66373781 -22 48 C-22 48.66 -22 49.32 -22 50 C-19.03 50.99 -16.06 51.98 -13 53 C-13 53.66 -13 54.32 -13 55 C-12.34 55.2475 -11.68 55.495 -11 55.75 C-7.24965485 57.31264381 -3.6339449 59.18302755 0 61 C0 40.87 0 20.74 0 0 Z " fill="#593FD5" transform="translate(113,23)"/>
<path d="M0 0 C5.62818591 0 5.62818591 0 8.69921875 1.6796875 C9.35083984 2.03160156 10.00246094 2.38351563 10.67382812 2.74609375 C11.33833984 3.11863281 12.00285156 3.49117187 12.6875 3.875 C13.36361328 4.23980469 14.03972656 4.60460937 14.73632812 4.98046875 C17.44966183 6.46537774 19.80212375 7.80212375 22 10 C23.98821313 10.39764263 25.98944339 10.73775349 28 11 C28 11.66 28 12.32 28 13 C28.556875 13.12375 29.11375 13.2475 29.6875 13.375 C32.28715346 14.07760904 34.598062 14.76657238 37 16 C37.8125 18.125 37.8125 18.125 38 20 C40.31 20.66 42.62 21.32 45 22 C45 22.66 45 23.32 45 24 C45.86625 24.268125 46.7325 24.53625 47.625 24.8125 C50.93900802 25.97853986 53.88527329 27.38034211 57 29 C57.65355469 29.31066406 58.30710938 29.62132813 58.98046875 29.94140625 C62.09141287 31.42975663 64.75844501 32.80180104 67.4375 35 C69.72725934 36.78712924 71.49310169 37.74770904 74.125 38.875 C79.57427798 41.2503263 84.78137005 44.15347457 90 47 C90 89.9 90 132.8 90 177 C81 177 81 177 78 175 C78 174.34 78 173.68 78 173 C77.47019531 172.73960937 76.94039063 172.47921875 76.39453125 172.2109375 C68.80943155 168.37507957 61.34782853 164.27199333 54 160 C54 159.34 54 158.68 54 158 C53.00871094 157.76539063 52.01742187 157.53078125 50.99609375 157.2890625 C46.57072225 156.02467064 42.93712759 153.80852469 39.0625 151.375 C38.03672852 150.74464844 38.03672852 150.74464844 36.99023438 150.1015625 C35.32224637 149.07510834 33.66045953 148.03858859 32 147 C32.69580078 143.21289062 32.69580078 143.21289062 35.43359375 141.296875 C36.42488281 140.78640625 37.41617188 140.2759375 38.4375 139.75 C39.42621094 139.22921875 40.41492188 138.7084375 41.43359375 138.171875 C44 137 44 137 46 137 C46 136.34 46 135.68 46 135 C47.78953185 134.16209211 49.58169695 133.32980604 51.375 132.5 C52.37273437 132.0359375 53.37046875 131.571875 54.3984375 131.09375 C57 130 57 130 59 130 C58.67 97.99 58.34 65.98 58 33 C47.83972471 33.52815059 47.83972471 33.52815059 41 38 C38.41996172 39.14757535 35.81083657 40.16436367 33.171875 41.16796875 C30.99869436 41.95996767 30.99869436 41.95996767 29 43 C29.495 43.495 29.495 43.495 30 44 C30.08851529 46.59359322 30.11525945 49.16039691 30.09765625 51.75390625 C30.0962413 52.52935287 30.09482635 53.3047995 30.09336853 54.10374451 C30.08775345 56.59003494 30.07519846 59.0762366 30.0625 61.5625 C30.05748694 63.24413933 30.0529237 64.92578006 30.04882812 66.60742188 C30.03777913 70.73831566 30.02050445 74.86914276 30 79 C27.03 79.99 24.06 80.98 21 82 C21 82.66 21 83.32 21 84 C20.05640625 84.45439453 20.05640625 84.45439453 19.09375 84.91796875 C14.07699336 87.37345958 9.31568517 89.94447248 4.69140625 93.08203125 C3 94 3 94 0 94 C0 62.98 0 31.96 0 0 Z " fill="#573FD4" transform="translate(113,23)"/>
<path d="M0 0 C1.91064299 1.91064299 1.12014611 4.73827895 1.12442017 7.28016663 C1.11902725 8.63530617 1.11902725 8.63530617 1.11352539 10.01782227 C1.11367142 10.96406464 1.11381744 11.91030701 1.1139679 12.88522339 C1.11326836 16.02897392 1.10547409 19.17266601 1.09765625 22.31640625 C1.09579221 24.48974068 1.09436824 26.66307552 1.09336853 28.83641052 C1.08954221 34.56901195 1.07971097 40.30158823 1.06866455 46.03417969 C1.05845287 51.87890279 1.05387143 57.72362993 1.04882812 63.56835938 C1.0380888 75.045584 1.02101102 86.52278991 1 98 C-0.60032137 98.84069415 -2.20541171 99.67231505 -3.8125 100.5 C-4.70582031 100.9640625 -5.59914063 101.428125 -6.51953125 101.90625 C-9 103 -9 103 -12 103 C-12 103.66 -12 104.32 -12 105 C-12.67546875 105.31453125 -13.3509375 105.6290625 -14.046875 105.953125 C-18.71217305 108.19138938 -22.51496847 110.07933953 -26 114 C-26.66 114 -27.32 114 -28 114 C-28 103.11 -28 92.22 -28 81 C-36.79168921 85.32005418 -45.38028225 89.64627582 -53.7421875 94.75 C-56 96 -56 96 -58 96 C-57.98839844 96.94617188 -57.97679688 97.89234375 -57.96484375 98.8671875 C-57.87966732 109.2800055 -58.32659796 119.61036857 -59 130 C-59.495 129.01 -59.495 129.01 -60 128 C-60.66 128 -61.32 128 -62 128 C-62.020625 128.598125 -62.04125 129.19625 -62.0625 129.8125 C-63 132 -63 132 -66.375 133.5625 C-67.57125 134.036875 -68.7675 134.51125 -70 135 C-71.73026102 136.47890069 -71.73026102 136.47890069 -73 138 C-76 140 -76 140 -79.0625 140.9375 C-82.27630502 141.7712102 -82.27630502 141.7712102 -84 145 C-86.88440791 142.5490843 -86.98736309 142.11892065 -87.42132568 138.03507996 C-87.45752657 136.33769277 -87.47690973 134.63989945 -87.48339844 132.94213867 C-87.49829315 132.01499557 -87.51318787 131.08785248 -87.52853394 130.13261414 C-87.57240057 127.06099808 -87.59280374 123.98984676 -87.609375 120.91796875 C-87.62662967 118.78428635 -87.64390287 116.6506041 -87.66119385 114.516922 C-87.69272448 110.04047476 -87.71025168 105.56418916 -87.72070312 101.08764648 C-87.73715704 95.35345792 -87.80922838 89.62140698 -87.89461899 83.88788891 C-87.95051748 79.47916954 -87.9661156 75.07096436 -87.97071075 70.66192055 C-87.97978858 68.54832587 -88.00387003 66.43474013 -88.0432663 64.32149315 C-88.32977988 47.7707857 -88.32977988 47.7707857 -85.06466675 43.4228363 C-82.72480708 41.83292322 -80.66813596 40.90374452 -78 40 C-76.70539286 39.26033475 -75.42321878 38.49774101 -74.1640625 37.69921875 C-72.98629112 37.02528611 -71.80663426 36.35463649 -70.625 35.6875 C-69.72201172 35.16833008 -69.72201172 35.16833008 -68.80078125 34.63867188 C-66.2196858 33.17070961 -63.82551899 31.94183966 -61 31 C-60.67 30.34 -60.34 29.68 -60 29 C-59.34 29 -58.68 29 -58 29 C-58 39.89 -58 50.78 -58 62 C-52.12357683 59.06178841 -46.45914892 56.19504179 -40.8125 52.91796875 C-39 52 -39 52 -37 52 C-37 51.34 -37 50.68 -37 50 C-33.63316085 47.56839395 -32.26649636 47 -28 47 C-28.11810088 42.0519151 -28.2423384 37.10403724 -28.37231445 32.15625 C-28.41567817 30.47237358 -28.4573522 28.78845277 -28.49731445 27.10449219 C-28.55498234 24.68671276 -28.6186865 22.26915705 -28.68359375 19.8515625 C-28.70030624 19.0963028 -28.71701874 18.34104309 -28.73423767 17.56289673 C-28.77555107 13.65260201 -28.77555107 13.65260201 -30 10 C-29.16855469 9.74605469 -28.33710938 9.49210937 -27.48046875 9.23046875 C-26.39378906 8.88628906 -25.30710938 8.54210938 -24.1875 8.1875 C-23.10855469 7.85105469 -22.02960938 7.51460937 -20.91796875 7.16796875 C-18.07888469 6.031575 -17.02874235 5.15482238 -15 3 C-10.17793768 0.76807401 -5.33581555 -0.53358156 0 0 Z " fill="#2AAAFD" transform="translate(171,55)"/>
<path d="M0 0 C1.32 0 2.64 0 4 0 C4 0.66 4 1.32 4 2 C4.86625 2.268125 5.7325 2.53625 6.625 2.8125 C9.91791964 3.97111987 12.91127875 5.38209839 16 7 C16 7.66 16 8.32 16 9 C16.804375 9.04125 17.60875 9.0825 18.4375 9.125 C23.37732495 10.33829034 26.92433135 13.03834744 31 16 C27.7169902 17.6415049 24.57454967 16.51888624 21 16 C21 15.34 21 14.68 21 14 C18.36 14 15.72 14 13 14 C13 13.01 13 12.02 13 11 C12.34 10.67 11.68 10.34 11 10 C11 9.34 11 8.68 11 8 C8.56282742 8.27034634 8.56282742 8.27034634 6 9 C3.83745123 12.24382316 3.78807723 12.46499769 4.4375 16 C4.97882504 19.00862759 5.01131074 19.96606778 4 23 C3.91312201 24.54970448 3.8823134 26.10289707 3.88647461 27.6550293 C3.88655014 28.59577805 3.88662567 29.53652679 3.88670349 30.50578308 C3.89186478 31.51836685 3.89702606 32.53095062 3.90234375 33.57421875 C3.9037587 34.61318802 3.90517365 35.65215729 3.90663147 36.72261047 C3.91223344 40.04426948 3.92478628 43.36586133 3.9375 46.6875 C3.94251475 48.93815007 3.9470777 51.18880119 3.95117188 53.43945312 C3.96220351 58.95965837 3.97894357 64.47982439 4 70 C3.34 70 2.68 70 2 70 C2.33 90.13 2.66 110.26 3 131 C4.65 131.33 6.3 131.66 8 132 C10.1875 132.75 10.1875 132.75 12 134 C12.21011719 134.80308594 12.42023438 135.60617188 12.63671875 136.43359375 C13.84106579 139.37283093 13.84106579 139.37283093 17.4765625 140.36328125 C18.85430229 140.70109245 20.2376024 141.01684608 21.625 141.3125 C22.33140625 141.48072266 23.0378125 141.64894531 23.765625 141.82226562 C25.50603164 142.23384828 27.25254101 142.61947061 29 143 C29.33 144.65 29.66 146.3 30 148 C32.74961511 148.94607807 32.74961511 148.94607807 36 149 C38.58333229 146.75041666 38.58333229 146.75041666 41 144 C43.6875 142.5 43.6875 142.5 47 141 C48.75400098 140.15407965 50.50375443 139.29931616 52.25 138.4375 C53.10078125 138.02371094 53.9515625 137.60992187 54.828125 137.18359375 C57.12243086 136.06592185 57.12243086 136.06592185 59 134 C59.14785238 131.55215893 59.18041159 129.20691387 59.1328125 126.76171875 C59.13361939 125.2871073 59.13628242 123.81249591 59.140625 122.33789062 C59.13866212 120.01309903 59.12506564 117.6908193 59.07910156 115.36645508 C58.85324629 102.42522314 58.85324629 102.42522314 61.72021484 98.86206055 C65.6616102 96.31950256 69.41478024 95.76420329 74 95 C74.4640625 94.01 74.4640625 94.01 74.9375 93 C75.288125 92.34 75.63875 91.68 76 91 C79.625 90.25 79.625 90.25 83 90 C83 89.34 83 88.68 83 88 C84.32 88 85.64 88 87 88 C87.02505615 88.59014893 87.0501123 89.18029785 87.07592773 89.78833008 C87.19200052 92.46326814 87.31467572 95.1378638 87.4375 97.8125 C87.47681641 98.74126953 87.51613281 99.67003906 87.55664062 100.62695312 C87.59853516 101.51962891 87.64042969 102.41230469 87.68359375 103.33203125 C87.72025146 104.15421143 87.75690918 104.9763916 87.79467773 105.82348633 C87.93427772 108.17905178 87.93427772 108.17905178 89 111 C89.08980465 113.25398159 89.11757524 115.51059115 89.11352539 117.76635742 C89.11367142 118.44954544 89.11381744 119.13273346 89.1139679 119.83662415 C89.11327169 122.09293807 89.10549296 124.34916926 89.09765625 126.60546875 C89.09579103 128.17059789 89.09436762 129.73572761 89.09336853 131.30085754 C89.08955152 135.41903293 89.07972818 139.53717302 89.06866455 143.65533447 C89.05843291 147.85810875 89.05386715 152.06088873 89.04882812 156.26367188 C89.03810519 164.50913078 89.02103854 172.754561 89 181 C79.86159696 180.01687262 79.86159696 180.01687262 76 177 C76 176.34 76 175.68 76 175 C74.75863281 174.64550781 73.51726562 174.29101562 72.23828125 173.92578125 C66.06315222 171.86499039 60.73091865 168.5487475 55.1875 165.1875 C48.12418673 160.93680987 41.04508327 156.95704906 33.64086914 153.32885742 C30.48905659 151.74289868 27.58524459 149.98057629 24.625 148.0625 C18.94411587 144.48285855 13.1542421 141.50406851 7.09375 138.640625 C6.0728125 138.09921875 5.051875 137.5578125 4 137 C3.12322601 136.56511765 2.24645203 136.13023529 1.34310913 135.68217468 C-2.55245756 131.22289012 -1.66045997 126.1603174 -1.58349609 120.44458008 C-1.58583252 119.15813095 -1.58816895 117.87168182 -1.59057617 116.54624939 C-1.5962808 113.02140968 -1.57099976 109.49739757 -1.53990126 105.97271562 C-1.5123589 102.28699014 -1.51236155 98.60126339 -1.50918579 94.91545105 C-1.49998446 88.72905143 -1.47245586 82.54296124 -1.43212891 76.35668945 C-1.37524131 67.62176848 -1.35297216 58.88700287 -1.33684421 50.15192568 C-1.32440391 44.11013842 -1.30371918 38.06837491 -1.2814641 32.02661681 C-1.27609702 30.55918132 -1.27096094 29.09174497 -1.26605177 27.62430787 C-1.24959553 22.80521132 -1.22362959 17.98626317 -1.19287109 13.16723633 C-1.18861115 11.9428183 -1.1843512 10.71840027 -1.17996216 9.45687866 C-1.17136169 8.3506163 -1.16276123 7.24435394 -1.15390015 6.10456848 C-1.14832785 5.13727216 -1.14275555 4.16997583 -1.13701439 3.1733675 C-1 1 -1 1 0 0 Z " fill="#5940D8" transform="translate(54,52)"/>
<path d="M0 0 C5.62818591 0 5.62818591 0 8.69921875 1.6796875 C9.35083984 2.03160156 10.00246094 2.38351563 10.67382812 2.74609375 C11.33833984 3.11863281 12.00285156 3.49117187 12.6875 3.875 C13.36361328 4.23980469 14.03972656 4.60460937 14.73632812 4.98046875 C17.44966183 6.46537774 19.80212375 7.80212375 22 10 C23.98821313 10.39764263 25.98944339 10.73775349 28 11 C28 11.66 28 12.32 28 13 C28.556875 13.12375 29.11375 13.2475 29.6875 13.375 C32.28715346 14.07760904 34.598062 14.76657238 37 16 C37.8125 18.125 37.8125 18.125 38 20 C40.31 20.66 42.62 21.32 45 22 C45 22.66 45 23.32 45 24 C45.86625 24.268125 46.7325 24.53625 47.625 24.8125 C50.93900802 25.97853986 53.88527329 27.38034211 57 29 C57.65355469 29.31066406 58.30710938 29.62132813 58.98046875 29.94140625 C62.09141287 31.42975663 64.75844501 32.80180104 67.4375 35 C69.72725934 36.78712924 71.49310169 37.74770904 74.125 38.875 C79.57427798 41.2503263 84.78137005 44.15347457 90 47 C90 89.9 90 132.8 90 177 C81 177 81 177 78 175 C78 174.34 78 173.68 78 173 C76.02 172.01 76.02 172.01 74 171 C77.86695678 171 80.5088452 172.41909971 84 174 C84 174.66 84 175.32 84 176 C85.32 176 86.64 176 88 176 C87.67 134.09 87.34 92.18 87 49 C83.7 48.34 80.4 47.68 77 47 C74.88675079 44.51382446 74 43.25084631 74 40 C71.69 39.67 69.38 39.34 67 39 C66.67 38.01 66.34 37.02 66 36 C65.01 36 64.02 36 63 36 C63 35.01 63 34.02 63 33 C55.92122369 32.64275335 49.44345977 32.73799849 43 36 C42.52949219 36.495 42.05898437 36.99 41.57421875 37.5 C39.49282953 39.48325921 37.56882257 39.93577566 34.8125 40.6875 C33.91144531 40.93886719 33.01039063 41.19023438 32.08203125 41.44921875 C31.39496094 41.63097656 30.70789063 41.81273437 30 42 C30 42.66 30 43.32 30 44 C30 55.66666667 30 67.33333333 30 79 C27.03 79.99 24.06 80.98 21 82 C21 82.66 21 83.32 21 84 C20.05640625 84.45439453 20.05640625 84.45439453 19.09375 84.91796875 C14.07699336 87.37345958 9.31568517 89.94447248 4.69140625 93.08203125 C3 94 3 94 0 94 C0 62.98 0 31.96 0 0 Z " fill="#573FD3" transform="translate(113,23)"/>
<path d="M0 0 C1.32 0 2.64 0 4 0 C4 0.66 4 1.32 4 2 C4.86625 2.268125 5.7325 2.53625 6.625 2.8125 C9.91791964 3.97111987 12.91127875 5.38209839 16 7 C16 7.66 16 8.32 16 9 C16.804375 9.04125 17.60875 9.0825 18.4375 9.125 C23.37732495 10.33829034 26.92433135 13.03834744 31 16 C27.7169902 17.6415049 24.57454967 16.51888624 21 16 C21 15.34 21 14.68 21 14 C18.36 14 15.72 14 13 14 C13 13.01 13 12.02 13 11 C12.34 10.67 11.68 10.34 11 10 C11 9.34 11 8.68 11 8 C8.56282742 8.27034634 8.56282742 8.27034634 6 9 C3.83745123 12.24382316 3.78807723 12.46499769 4.4375 16 C4.97882504 19.00862759 5.01131074 19.96606778 4 23 C3.91312201 24.54970448 3.8823134 26.10289707 3.88647461 27.6550293 C3.88655014 28.59577805 3.88662567 29.53652679 3.88670349 30.50578308 C3.89186478 31.51836685 3.89702606 32.53095062 3.90234375 33.57421875 C3.9037587 34.61318802 3.90517365 35.65215729 3.90663147 36.72261047 C3.91223344 40.04426948 3.92478628 43.36586133 3.9375 46.6875 C3.94251475 48.93815007 3.9470777 51.18880119 3.95117188 53.43945312 C3.96220351 58.95965837 3.97894357 64.47982439 4 70 C3.34 70 2.68 70 2 70 C2.33 90.13 2.66 110.26 3 131 C4.65 131.33 6.3 131.66 8 132 C10.3125 133.0625 10.3125 133.0625 12 134 C12 134.99 12 135.98 12 137 C1.8 135.8 1.8 135.8 -1 133 C-1.09839707 131.29405909 -1.12632028 129.58402029 -1.12698364 127.87524414 C-1.12980347 126.7646463 -1.13262329 125.65404846 -1.13552856 124.50979614 C-1.13350433 123.28066498 -1.1314801 122.05153381 -1.12939453 120.78515625 C-1.13114685 119.4991452 -1.13289917 118.21313416 -1.13470459 116.88815308 C-1.13927853 113.35105836 -1.13748953 109.81399268 -1.1343255 106.27689743 C-1.1318017 102.58311634 -1.1341395 98.88933782 -1.13571167 95.19555664 C-1.13753331 88.99136913 -1.13512721 82.78719352 -1.13037109 76.58300781 C-1.12492848 69.40016636 -1.12669114 62.21735329 -1.1321975 55.03451252 C-1.1367288 48.87826195 -1.1373791 42.72201994 -1.13475883 36.56576824 C-1.13319615 32.88418296 -1.13300205 29.20261104 -1.13629532 25.52102661 C-1.13970812 21.41894843 -1.13498402 17.31691953 -1.12939453 13.21484375 C-1.13141876 11.98571259 -1.13344299 10.75658142 -1.13552856 9.49020386 C-1.13270874 8.37960602 -1.12988892 7.26900818 -1.12698364 6.12475586 C-1.12660662 5.15356308 -1.12622959 4.1823703 -1.12584114 3.18174744 C-1 1 -1 1 0 0 Z " fill="#5441AD" transform="translate(54,52)"/>
<path d="M0 0 C0.33 0 0.66 0 1 0 C1.00808685 1.19825409 1.01617371 2.39650818 1.02450562 3.631073 C1.10186594 14.9031135 1.18957929 26.17503179 1.28752708 37.44691277 C1.3375521 43.24241602 1.38388145 49.03790049 1.421875 54.83349609 C1.45864957 60.42268391 1.50498786 66.01171689 1.55806351 71.60077286 C1.5766492 73.73706481 1.59174158 75.87339 1.60334396 78.00973129 C1.62013517 80.99346654 1.64915249 83.97684389 1.68115234 86.96044922 C1.68331253 87.85092957 1.68547272 88.74140991 1.68769836 89.65887451 C1.53378666 94.31059823 1.53378666 94.31059823 4 98 C4.37125 97.38125 4.7425 96.7625 5.125 96.125 C7.91334801 92.96487226 11.17863951 92.30356008 15.25 91.625 C16.11625 91.315625 16.11625 91.315625 17 91 C17.433125 90.01 17.433125 90.01 17.875 89 C18.431875 88.01 18.431875 88.01 19 87 C22.125 86.25 22.125 86.25 25 86 C25.33 84.68 25.66 83.36 26 82 C26.66 82 27.32 82 28 82 C28.00298096 81.0620459 28.00596191 80.1240918 28.0090332 79.15771484 C28.04609151 75.65429616 28.1318716 72.1589703 28.25024414 68.65771484 C28.29144405 67.14705146 28.31354257 65.63573531 28.31567383 64.12451172 C28.3302804 59.2004746 28.55463205 54.73083883 30 50 C33.26167657 46.8397446 36.78177375 45.53998177 41 44 C42.50857294 43.18254977 44.00058485 42.33329239 45.46875 41.4453125 C46.47808594 40.86523438 46.47808594 40.86523438 47.5078125 40.2734375 C48.86953993 39.48844169 50.22881289 38.69917674 51.5859375 37.90625 C56.6669324 35 56.6669324 35 60 35 C60 43.91 60 52.82 60 62 C57.86395692 58.79593538 57.75791092 58.00399253 57.8046875 54.33203125 C57.81113281 53.43935547 57.81757813 52.54667969 57.82421875 51.62695312 C57.84097656 50.69818359 57.85773438 49.76941406 57.875 48.8125 C57.88402344 47.87212891 57.89304688 46.93175781 57.90234375 45.96289062 C57.92590944 43.64167032 57.95880884 41.32096356 58 39 C56.68 39 55.36 39 54 39 C54 39.66 54 40.32 54 41 C50.535 41.495 50.535 41.495 47 42 C46.814375 42.78375 46.62875 43.5675 46.4375 44.375 C45 47 45 47 41.6875 48.125 C40.470625 48.41375 39.25375 48.7025 38 49 C36.3170608 49.97236487 34.64556566 50.96564444 33 52 C32.34 52 31.68 52 31 52 C31.02094727 52.9787207 31.04189453 53.95744141 31.06347656 54.96582031 C31.13597963 58.60352904 31.18183633 62.24117416 31.21972656 65.87939453 C31.2398188 67.45274604 31.26709799 69.02602308 31.30175781 70.59912109 C31.35038494 72.86314272 31.37299135 75.12617573 31.390625 77.390625 C31.41127014 78.09181458 31.43191528 78.79300415 31.45318604 79.51544189 C31.45475456 82.94392482 31.25437969 84.67712214 29.10327148 87.4074707 C27.03184151 88.97589063 25.22232072 89.98498434 22.8125 90.9375 C19.45950631 92.34987214 16.21233577 93.85130359 13 95.5625 C12.2575 95.95566406 11.515 96.34882813 10.75 96.75390625 C8.68389806 97.96602638 8.68389806 97.96602638 8 101 C1.125 100.125 1.125 100.125 0 99 C-0.1584265 96.9291528 -0.25124422 94.85321971 -0.31640625 92.77734375 C-0.35830078 91.51728516 -0.40019531 90.25722656 -0.44335938 88.95898438 C-0.48317596 87.61849264 -0.52288814 86.2779978 -0.5625 84.9375 C-0.60568042 83.59308477 -0.64929456 82.2486834 -0.69335938 80.90429688 C-0.79985358 77.6029766 -0.9018646 74.30157764 -1 71 C-1.99 71.495 -1.99 71.495 -3 72 C-2.99476318 71.39003174 -2.98952637 70.78006348 -2.98413086 70.15161133 C-2.96326665 67.37191815 -2.95030987 64.59224149 -2.9375 61.8125 C-2.92912109 60.85279297 -2.92074219 59.89308594 -2.91210938 58.90429688 C-2.90888672 57.97294922 -2.90566406 57.04160156 -2.90234375 56.08203125 C-2.89710693 55.22843018 -2.89187012 54.3748291 -2.88647461 53.49536133 C-3.00413221 50.90917131 -3.49117463 48.53347641 -4 46 C-3.67558396 44.33157466 -3.34060811 42.66519519 -3 41 C-2.63378984 34.29971049 -3.30301996 27.65864859 -4 21 C-3.34 20.67 -2.68 20.34 -2 20 C-1.34 20.33 -0.68 20.66 0 21 C0 14.07 0 7.14 0 0 Z " fill="#4C5CE6" transform="translate(83,101)"/>
<path d="M0 0 C1.91064299 1.91064299 1.12014611 4.73827895 1.12442017 7.28016663 C1.12082489 8.18359299 1.11722961 9.08701935 1.11352539 10.01782227 C1.11367142 10.96406464 1.11381744 11.91030701 1.1139679 12.88522339 C1.11326836 16.02897392 1.10547409 19.17266601 1.09765625 22.31640625 C1.09579221 24.48974068 1.09436824 26.66307552 1.09336853 28.83641052 C1.08954221 34.56901195 1.07971097 40.30158823 1.06866455 46.03417969 C1.05845287 51.87890279 1.05387143 57.72362993 1.04882812 63.56835938 C1.0380888 75.045584 1.02101102 86.52278991 1 98 C-0.60032137 98.84069415 -2.20541171 99.67231505 -3.8125 100.5 C-5.15248047 101.19609375 -5.15248047 101.19609375 -6.51953125 101.90625 C-9 103 -9 103 -12 103 C-12 103.66 -12 104.32 -12 105 C-12.67546875 105.31453125 -13.3509375 105.6290625 -14.046875 105.953125 C-18.71217305 108.19138938 -22.51496847 110.07933953 -26 114 C-26.66 114 -27.32 114 -28 114 C-28 103.11 -28 92.22 -28 81 C-27.67 81 -27.34 81 -27 81 C-26.67 89.25 -26.34 97.5 -26 106 C-24.35 106.33 -22.7 106.66 -21 107 C-20.93425781 106.39027344 -20.86851562 105.78054687 -20.80078125 105.15234375 C-20 103 -20 103 -17.85546875 101.69140625 C-16.97503906 101.31886719 -16.09460938 100.94632812 -15.1875 100.5625 C-10.93601127 98.60911329 -8.76565688 96.82937106 -6 93 C-3.8984375 92.359375 -3.8984375 92.359375 -2 92 C-2.00785522 91.03126953 -2.00785522 91.03126953 -2.01586914 90.04296875 C-2.13961127 71.72286769 -1.9339771 53.41124988 -1.62667847 35.09375 C-1.58383891 32.52802101 -1.54260349 29.96226474 -1.50296021 27.39648438 C-1.44578551 23.74859208 -1.38209481 20.10087276 -1.31640625 16.453125 C-1.29968872 15.3418927 -1.28297119 14.2306604 -1.26574707 13.08575439 C-1.23583679 11.55298859 -1.23583679 11.55298859 -1.20532227 9.98925781 C-1.18977798 9.09458801 -1.1742337 8.19991821 -1.15821838 7.27813721 C-1 5 -1 5 0 2 C-1.43861294 2.08746284 -2.87597508 2.19565348 -4.3125 2.3125 C-5.11300781 2.37050781 -5.91351563 2.42851563 -6.73828125 2.48828125 C-9.40144538 3.09082788 -10.22717427 3.98565889 -12 6 C-13.11375 6.5878125 -13.11375 6.5878125 -14.25 7.1875 C-18.65024467 10.08766126 -23.08524603 13.9282336 -24.6328125 19.125 C-24.86164478 21.07376524 -24.93570162 23.03889931 -25 25 C-25.15597656 25.7425 -25.31195313 26.485 -25.47265625 27.25 C-26.14480111 30.755111 -26.35493908 34.25674318 -26.5625 37.8125 C-26.60568359 38.50537109 -26.64886719 39.19824219 -26.69335938 39.91210938 C-26.79861453 41.60788686 -26.89972863 43.30392052 -27 45 C-27.33 45 -27.66 45 -28 45 C-28.02505615 44.01080566 -28.0501123 43.02161133 -28.07592773 42.00244141 C-28.16997787 38.33840596 -28.27020429 34.67456115 -28.37231445 31.01074219 C-28.41567241 29.42387343 -28.45734687 27.83695776 -28.49731445 26.25 C-28.55499632 23.97121021 -28.61869638 21.69265678 -28.68359375 19.4140625 C-28.70030624 18.70255035 -28.71701874 17.99103821 -28.73423767 17.25796509 C-28.79721937 13.50339183 -28.79721937 13.50339183 -30 10 C-29.16855469 9.74605469 -28.33710938 9.49210937 -27.48046875 9.23046875 C-26.39378906 8.88628906 -25.30710938 8.54210938 -24.1875 8.1875 C-23.10855469 7.85105469 -22.02960938 7.51460937 -20.91796875 7.16796875 C-18.07888469 6.031575 -17.02874235 5.15482238 -15 3 C-10.17793768 0.76807401 -5.33581555 -0.53358156 0 0 Z " fill="#4C92FD" transform="translate(171,55)"/>
<path d="M0 0 C1.32 0 2.64 0 4 0 C4 0.66 4 1.32 4 2 C4.556875 2.12375 5.11375 2.2475 5.6875 2.375 C8.28715346 3.07760904 10.598062 3.76657238 13 5 C13.8125 7.125 13.8125 7.125 14 9 C16.31 9.66 18.62 10.32 21 11 C21 11.66 21 12.32 21 13 C21.86625 13.268125 22.7325 13.53625 23.625 13.8125 C26.93900802 14.97853986 29.88527329 16.38034211 33 18 C33.65355469 18.31066406 34.30710938 18.62132813 34.98046875 18.94140625 C38.09141287 20.42975663 40.75844501 21.80180104 43.4375 24 C45.72725934 25.78712924 47.49310169 26.74770904 50.125 27.875 C55.57427798 30.2503263 60.78137005 33.15347457 66 36 C66 78.9 66 121.8 66 166 C57 166 57 166 54 164 C54 163.34 54 162.68 54 162 C52.68 161.34 51.36 160.68 50 160 C53.86695678 160 56.5088452 161.41909971 60 163 C60 163.66 60 164.32 60 165 C61.32 165 62.64 165 64 165 C63.67 123.09 63.34 81.18 63 38 C59.7 37.34 56.4 36.68 53 36 C50.88675079 33.51382446 50 32.25084631 50 29 C47.69 28.67 45.38 28.34 43 28 C42.505 26.515 42.505 26.515 42 25 C41.01 25 40.02 25 39 25 C39 24.01 39 23.02 39 22 C37.96875 21.855625 36.9375 21.71125 35.875 21.5625 C32.57450187 21.08339543 29.28731659 20.56124917 26 20 C25.67 19.01 25.34 18.02 25 17 C23.2997818 15.75875157 23.2997818 15.75875157 21.18359375 14.73828125 C20.41982422 14.34189453 19.65605469 13.94550781 18.86914062 13.53710938 C18.06669922 13.13298828 17.26425781 12.72886719 16.4375 12.3125 C15.22803711 11.68891602 15.22803711 11.68891602 13.99414062 11.05273438 C12.0003913 10.02636638 10.00243503 9.00928802 8 8 C8 7.34 8 6.68 8 6 C7.01 5.67 6.02 5.34 5 5 C5 4.34 5 3.68 5 3 C2.525 2.01 2.525 2.01 0 1 C0 0.67 0 0.34 0 0 Z " fill="#7265AF" transform="translate(137,34)"/>
<path d="M0 0 C0.66 0 1.32 0 2 0 C2 10.89 2 21.78 2 33 C5.3 31.35 8.6 29.7 12 28 C13.65 27.34 15.3 26.68 17 26 C17 26.66 17 27.32 17 28 C15.35666496 29.03789581 13.68756133 30.03567924 12 31 C11.34 31.66 10.68 32.32 10 33 C5.545 33.495 5.545 33.495 1 34 C0.34 25.09 -0.32 16.18 -1 7 C-6.7018576 8.40371521 -6.7018576 8.40371521 -9 11 C-9.62777344 11.12761719 -10.25554687 11.25523438 -10.90234375 11.38671875 C-13.70396709 12.20581533 -14.71374246 13.58323755 -16.5625 15.8125 C-17.14128906 16.49957031 -17.72007813 17.18664062 -18.31640625 17.89453125 C-19.14978516 18.93673828 -19.14978516 18.93673828 -20 20 C-20.54527344 20.62261719 -21.09054688 21.24523437 -21.65234375 21.88671875 C-24.362598 26.13671165 -24.11906182 31.21863426 -24.06591797 36.12548828 C-24.05615936 37.31336945 -24.04640076 38.50125061 -24.03634644 39.72512817 C-24.02177399 40.994039 -24.00720154 42.26294983 -23.9921875 43.5703125 C-23.97915597 45.57743031 -23.96614205 47.58454843 -23.95417976 49.5916729 C-23.92371131 54.52559262 -23.88342286 59.45935665 -23.82861328 64.39306641 C-23.79824744 67.16869832 -23.77585253 69.94417567 -23.76223755 72.71994019 C-23.74906864 75.33097299 -23.72395121 77.94197819 -23.6857605 80.55276489 C-23.68230621 81.73434174 -23.67885193 82.91591858 -23.67529297 84.13330078 C-23.66561493 85.17221466 -23.65593689 86.21112854 -23.64596558 87.28152466 C-24.0474184 90.36410514 -24.9374665 91.72333089 -27 94 C-27.20872324 84.06447917 -27.36853939 74.12948138 -27.46630955 64.19221306 C-27.51324101 59.57754856 -27.57686674 54.96438594 -27.67895508 50.35058594 C-27.77690126 45.89600052 -27.83058807 41.44285722 -27.85389519 36.98727798 C-27.87049857 35.28944311 -27.90292498 33.59168546 -27.95157051 31.8944664 C-28.31763489 18.59095896 -28.31763489 18.59095896 -25.0713501 14.67127991 C-22.75755359 13.10372286 -20.58858733 12.03480977 -18 11 C-16.70954057 10.25312197 -15.42831643 9.48964542 -14.1640625 8.69921875 C-12.98629112 8.02528611 -11.80663426 7.35463649 -10.625 6.6875 C-10.02300781 6.34138672 -9.42101562 5.99527344 -8.80078125 5.63867188 C-6.2196858 4.17070961 -3.82551899 2.94183966 -1 2 C-0.67 1.34 -0.34 0.68 0 0 Z " fill="#4C8FFA" transform="translate(111,84)"/>
<path d="M0 0 C0.33 0 0.66 0 1 0 C2.01286753 8.69980864 2.10621544 17.25492893 2 26 C2.66 26 3.32 26 4 26 C4.0697076 33.57167806 4.12291623 41.14332256 4.15543652 48.71524906 C4.17104978 52.23174998 4.19220765 55.7480303 4.22631836 59.2644043 C4.26534335 63.31300905 4.27974501 67.36138439 4.29296875 71.41015625 C4.30845261 72.66458023 4.32393646 73.91900421 4.33988953 75.21144104 C4.3411055 81.54746067 4.26517238 86.47938676 1 92 C-1.453125 93.8203125 -1.453125 93.8203125 -4.25 95.125 C-12.26571488 98.75685939 -12.26571488 98.75685939 -18 105 C-20.97 105 -23.94 105 -27 105 C-25.68786941 101.06360824 -24.17198478 100.71346403 -20.5625 98.8125 C-19.57378906 98.28269531 -18.58507812 97.75289063 -17.56640625 97.20703125 C-15 96 -15 96 -13 96 C-13 95.34 -13 94.68 -13 94 C-11.21046815 93.16209211 -9.41830305 92.32980604 -7.625 91.5 C-6.12839844 90.80390625 -6.12839844 90.80390625 -4.6015625 90.09375 C-2 89 -2 89 0 89 C0 59.63 0 30.26 0 0 Z " fill="#495BE2" transform="translate(172,64)"/>
<path d="M0 0 C1.32 0.33 2.64 0.66 4 1 C4 42.91 4 84.82 4 128 C2.68 128 1.36 128 0 128 C-0.33 127.34 -0.66 126.68 -1 126 C-2.43365529 125.32029888 -3.89761327 124.70352361 -5.375 124.125 C-8.90790006 122.63095959 -11.12378721 121.50226388 -13 118 C-8.74413862 118.53198267 -5.49448414 120.15879533 -1.76953125 122.16015625 C-0.02531552 123.14292401 -0.02531552 123.14292401 2 123 C1.89285388 107.25805389 1.78010934 91.51615854 1.66066074 75.77430153 C1.60533255 68.46543615 1.55185122 61.15656589 1.50268555 53.84765625 C1.45983875 47.47879525 1.41355952 41.10997014 1.36312145 34.74116457 C1.33652449 31.3675101 1.31167153 27.99386273 1.29092598 24.62016678 C1.26693122 20.85821802 1.23686994 17.09636457 1.20532227 13.33447266 C1.1995668 12.21022385 1.19381134 11.08597504 1.18788147 9.92765808 C1.17809265 8.90679611 1.16830383 7.88593414 1.15821838 6.83413696 C1.15176583 5.94368494 1.14531328 5.05323292 1.1386652 4.1357975 C1.13538308 1.94716119 1.13538308 1.94716119 0 0 Z " fill="#5444A7" transform="translate(197,71)"/>
<path d="M0 0 C1.32 0 2.64 0 4 0 C4 0.66 4 1.32 4 2 C5.98 2.66 7.96 3.32 10 4 C8 5 8 5 4 5 C4 4.34 4 3.68 4 3 C3.01 3 2.02 3 1 3 C1.10714036 19.91539733 1.21988385 36.8307467 1.33933926 53.74606133 C1.39467031 61.59973526 1.44815211 69.45341373 1.49731445 77.30712891 C1.54015774 84.15062724 1.58643609 90.99409214 1.63687855 97.83753884 C1.66347834 101.46270519 1.68833137 105.08786492 1.70907402 108.71306992 C1.73226657 112.75521533 1.7631265 116.79726666 1.79467773 120.83935547 C1.8004332 122.04776093 1.80618866 123.25616638 1.81211853 124.50119019 C1.82680176 126.14607422 1.82680176 126.14607422 1.84178162 127.82418823 C1.84823417 128.78100935 1.85468672 129.73783047 1.8613348 130.72364616 C1.85267596 133.03202066 1.85267596 133.03202066 3 135 C1.68 134.34 0.36 133.68 -1 133 C-1.02332856 115.80661031 -1.04097896 98.61322553 -1.05181217 81.41982365 C-1.05697522 73.437185 -1.06401809 65.45455617 -1.07543945 57.47192383 C-1.08538602 50.51676201 -1.09185336 43.56160731 -1.09408849 36.60643858 C-1.09539565 32.92148073 -1.09848179 29.23654322 -1.10573006 25.55159187 C-1.1137434 21.44462292 -1.11399116 17.33768963 -1.11352539 13.23071289 C-1.11712067 12.00001068 -1.12071594 10.76930847 -1.12442017 9.50131226 C-1.1230455 8.38926926 -1.12167084 7.27722626 -1.12025452 6.13148499 C-1.12117631 5.15899339 -1.1220981 4.18650179 -1.12304783 3.18454075 C-1 1 -1 1 0 0 Z " fill="#9387C2" transform="translate(54,52)"/>
<path d="M0 0 C5.21018588 0 7.88745091 1.17582062 12.25 3.625 C12.9095166 3.98746826 13.5690332 4.34993652 14.24853516 4.72338867 C28.56073527 12.6822058 28.56073527 12.6822058 30 17 C28.35 16.67 26.7 16.34 25 16 C25 15.34 25 14.68 25 14 C20.49646738 12.24252386 16.82360189 11.80705592 12 12 C12 11.34 12 10.68 12 10 C12.66 10 13.32 10 14 10 C14 9.34 14 8.68 14 8 C12.35 8 10.7 8 9 8 C8.67 6.68 8.34 5.36 8 4 C6.35 4 4.7 4 3 4 C3.03552979 4.58378418 3.07105957 5.16756836 3.10766602 5.76904297 C3.26741355 8.47061643 3.41500419 11.17273101 3.5625 13.875 C3.61857422 14.7928125 3.67464844 15.710625 3.73242188 16.65625 C4.01349802 21.97795844 3.89358451 27.01875672 3.27368164 32.30810547 C2.72253795 37.72907815 2.62259274 43.18145285 2.4375 48.625 C2.39431641 49.81996094 2.35113281 51.01492187 2.30664062 52.24609375 C2.20159693 55.16397406 2.09944352 58.08192438 2 61 C1.34 61 0.68 61 0 61 C0 40.87 0 20.74 0 0 Z " fill="#6858B6" transform="translate(113,23)"/>
<path d="M0 0 C1.6065676 0.25620684 3.2102483 0.53055871 4.8125 0.8125 C6.15248047 1.03873047 6.15248047 1.03873047 7.51953125 1.26953125 C10 2 10 2 11.40625 3.46875 C13.82983766 5.79729501 16.44137494 6.01256311 19.6875 6.6875 C20.86699219 6.93886719 22.04648438 7.19023437 23.26171875 7.44921875 C24.16535156 7.63097656 25.06898437 7.81273437 26 8 C26.06058594 8.77730469 26.12117188 9.55460938 26.18359375 10.35546875 C26.73467787 13.18742244 26.73467787 13.18742244 29.28515625 14.36328125 C30.20167969 14.67652344 31.11820313 14.98976562 32.0625 15.3125 C32.98160156 15.63863281 33.90070313 15.96476563 34.84765625 16.30078125 C35.55792969 16.53152344 36.26820312 16.76226562 37 17 C37 17.66 37 18.32 37 19 C37.68707031 19.12117188 38.37414062 19.24234375 39.08203125 19.3671875 C39.98308594 19.53476563 40.88414063 19.70234375 41.8125 19.875 C42.70582031 20.03742188 43.59914062 20.19984375 44.51953125 20.3671875 C47 21 47 21 50 23 C50 24.32 50 25.64 50 27 C52.64 27 55.28 27 58 27 C58 26.34 58 25.68 58 25 C59.32 24.67 60.64 24.34 62 24 C60.68 26.31 59.36 28.62 58 31 C58.99 31 59.98 31 61 31 C61 31.66 61 32.32 61 33 C61.61875 33.0825 62.2375 33.165 62.875 33.25 C65 34 65 34 66.25 36.0625 C66.4975 36.701875 66.745 37.34125 67 38 C56.77667616 32.95144502 46.86012292 27.39441191 37.06005859 21.57446289 C32.39103759 18.80520255 27.68168834 16.14245651 22.8984375 13.57421875 C18.39470443 11.12812114 13.93914376 8.59673693 9.48022461 6.07006836 C6.35409402 4.30329289 3.23798327 2.55688198 0 1 C0 0.67 0 0.34 0 0 Z " fill="#6955C7" transform="translate(57,187)"/>
<path d="M0 0 C1 1 1 1 1.11352539 2.76586914 C1.10828857 3.51473389 1.10305176 4.26359863 1.09765625 5.03515625 C1.09443359 5.84404297 1.09121094 6.65292969 1.08789062 7.48632812 C1.07951172 8.33646484 1.07113281 9.18660156 1.0625 10.0625 C1.05798828 10.91650391 1.05347656 11.77050781 1.04882812 12.65039062 C1.03700373 14.76695663 1.01906769 16.88348685 1 19 C0.34 19 -0.32 19 -1 19 C-1.02699725 16.72923158 -1.04639453 14.45837179 -1.0625 12.1875 C-1.07410156 10.92292969 -1.08570313 9.65835938 -1.09765625 8.35546875 C-1 5 -1 5 0 2 C-1.43861294 2.08746284 -2.87597508 2.19565348 -4.3125 2.3125 C-5.11300781 2.37050781 -5.91351563 2.42851563 -6.73828125 2.48828125 C-9.40144538 3.09082788 -10.22717427 3.98565889 -12 6 C-13.11375 6.5878125 -13.11375 6.5878125 -14.25 7.1875 C-18.65024467 10.08766126 -23.08524603 13.9282336 -24.6328125 19.125 C-24.86164478 21.07376524 -24.93570162 23.03889931 -25 25 C-25.15597656 25.7425 -25.31195313 26.485 -25.47265625 27.25 C-26.14480111 30.755111 -26.35493908 34.25674318 -26.5625 37.8125 C-26.60568359 38.50537109 -26.64886719 39.19824219 -26.69335938 39.91210938 C-26.79861453 41.60788686 -26.89972863 43.30392052 -27 45 C-27.33 45 -27.66 45 -28 45 C-28.02505615 44.01080566 -28.0501123 43.02161133 -28.07592773 42.00244141 C-28.16997787 38.33840596 -28.27020429 34.67456115 -28.37231445 31.01074219 C-28.41567241 29.42387343 -28.45734687 27.83695776 -28.49731445 26.25 C-28.55499632 23.97121021 -28.61869638 21.69265678 -28.68359375 19.4140625 C-28.70030624 18.70255035 -28.71701874 17.99103821 -28.73423767 17.25796509 C-28.79721937 13.50339183 -28.79721937 13.50339183 -30 10 C-29.16855469 9.74605469 -28.33710938 9.49210937 -27.48046875 9.23046875 C-26.39378906 8.88628906 -25.30710938 8.54210938 -24.1875 8.1875 C-23.10855469 7.85105469 -22.02960938 7.51460937 -20.91796875 7.16796875 C-18.07888469 6.031575 -17.02874235 5.15482238 -15 3 C-10.17793768 0.76807401 -5.33581555 -0.53358156 0 0 Z " fill="#5F5DF5" transform="translate(171,55)"/>
<path d="M0 0 C2.89906458 2.89906458 2.54925097 6.03525732 2.75 9.9375 C2.79310303 10.69861084 2.83620605 11.45972168 2.88061523 12.24389648 C3.14541375 18.37181319 2.55504934 24.04968723 1 30 C0.67 30 0.34 30 0 30 C0 21.09 0 12.18 0 3 C-5.32354104 4.99632789 -9.25715635 6.53726078 -13.9375 9.375 C-15.46310547 10.28572266 -15.46310547 10.28572266 -17.01953125 11.21484375 C-18.49486328 12.09849609 -18.49486328 12.09849609 -20 13 C-21.70305698 13.98831527 -23.41081554 14.96861313 -25.125 15.9375 C-25.82882813 16.33839844 -26.53265625 16.73929688 -27.2578125 17.15234375 C-29 18 -29 18 -31 18 C-29.67708855 14.03126566 -28.08850262 13.70094963 -24.4375 11.8125 C-23.42558594 11.28269531 -22.41367188 10.75289062 -21.37109375 10.20703125 C-20.58863281 9.80871094 -19.80617188 9.41039062 -19 9 C-19.66 8.67 -20.32 8.34 -21 8 C-19.35 7.34 -17.7 6.68 -16 6 C-16 5.34 -16 4.68 -16 4 C-14.02 3.67 -12.04 3.34 -10 3 C-10 2.34 -10 1.68 -10 1 C-6.42894485 -1.33492068 -4.06144397 -1.05950712 0 0 Z " fill="#37BBFB" transform="translate(144,133)"/>
<path d="M0 0 C0 8.91 0 17.82 0 27 C-2.13604308 23.79593538 -2.24208908 23.00399253 -2.1953125 19.33203125 C-2.18886719 18.43935547 -2.18242187 17.54667969 -2.17578125 16.62695312 C-2.15902344 15.69818359 -2.14226562 14.76941406 -2.125 13.8125 C-2.11597656 12.87212891 -2.10695312 11.93175781 -2.09765625 10.96289062 C-2.07409056 8.64167032 -2.04119116 6.32096356 -2 4 C-3.32 4 -4.64 4 -6 4 C-6 4.66 -6 5.32 -6 6 C-8.31 6.33 -10.62 6.66 -13 7 C-13.185625 7.78375 -13.37125 8.5675 -13.5625 9.375 C-15 12 -15 12 -18.3125 13.125 C-19.529375 13.41375 -20.74625 13.7025 -22 14 C-23.6829392 14.97236487 -25.35443434 15.96564444 -27 17 C-27.66 17 -28.32 17 -29 17 C-29 27.89 -29 38.78 -29 50 C-29.33 50 -29.66 50 -30 50 C-30 38.45 -30 26.9 -30 15 C-26.37 13.02 -22.74 11.04 -19 9 C-13.6974092 5.96975766 -13.6974092 5.96975766 -8.4140625 2.90625 C-3.3330676 0 -3.3330676 0 0 0 Z " fill="#3B63D6" transform="translate(143,136)"/>
<path d="M0 0 C0.33 0 0.66 0 1 0 C1 42.9 1 85.8 1 130 C-8 130 -8 130 -11 128 C-11 127.34 -11 126.68 -11 126 C-12.32 125.34 -13.64 124.68 -15 124 C-11.13304322 124 -8.4911548 125.41909971 -5 127 C-5 127.66 -5 128.32 -5 129 C-3.35 129 -1.7 129 0 129 C0 86.43 0 43.86 0 0 Z " fill="#B0A7D2" transform="translate(202,70)"/>
<path d="M0 0 C0.66 0 1.32 0 2 0 C2 21.12 2 42.24 2 64 C1.34 64 0.68 64 0 64 C-0.78497307 50.89375326 -1.1089183 37.81437034 -1.125 24.6875 C-1.12749756 23.97562531 -1.12999512 23.26375061 -1.13256836 22.53030396 C-1.1543936 14.9568351 -1.05062279 7.51278676 0 0 Z " fill="#6C5BBD" transform="translate(141,169)"/>
<path d="M0 0 C0.33 0 0.66 0 1 0 C1.08706892 3.27066566 1.14041241 6.54103365 1.1875 9.8125 C1.21263672 10.74126953 1.23777344 11.67003906 1.26367188 12.62695312 C1.27333984 13.51962891 1.28300781 14.41230469 1.29296875 15.33203125 C1.3086792 16.15421143 1.32438965 16.9763916 1.34057617 17.82348633 C0.91982142 20.51239573 0.10358649 21.33333935 -2 23 C-3.9453125 23.9921875 -3.9453125 23.9921875 -6.125 24.875 C-9.4920768 26.31566729 -12.76575602 27.84204753 -16 29.5625 C-16.7425 29.95566406 -17.485 30.34882813 -18.25 30.75390625 C-20.31610194 31.96602638 -20.31610194 31.96602638 -21 35 C-27.875 34.125 -27.875 34.125 -29 33 C-29.08775605 30.85441173 -29.10695219 28.70595579 -29.09765625 26.55859375 C-29.09443359 25.25341797 -29.09121094 23.94824219 -29.08789062 22.60351562 C-29.07953401 21.2148431 -29.07106905 19.82617123 -29.0625 18.4375 C-29.05748666 17.04492344 -29.05292347 15.65234519 -29.04882812 14.25976562 C-29.03699434 10.8398013 -29.0205088 7.41992156 -29 4 C-28.67 4 -28.34 4 -28 4 C-27.82990052 6.64565434 -27.66316199 9.29141431 -27.5 11.9375 C-27.45157959 12.71424072 -27.40315918 13.49098145 -27.35327148 14.29125977 C-27.11234834 18.35296055 -26.96207414 22.36690501 -27.0625 26.4375 C-27.41164028 30.05142273 -27.41164028 30.05142273 -25 32 C-24.62875 31.38125 -24.2575 30.7625 -23.875 30.125 C-21.08665199 26.96487226 -17.82136049 26.30356008 -13.75 25.625 C-13.1725 25.41875 -12.595 25.2125 -12 25 C-11.71125 24.34 -11.4225 23.68 -11.125 23 C-10.75375 22.34 -10.3825 21.68 -10 21 C-6.875 20.25 -6.875 20.25 -4 20 C-3.67 18.68 -3.34 17.36 -3 16 C-2.34 16 -1.68 16 -1 16 C-0.67 10.72 -0.34 5.44 0 0 Z " fill="#5A55EA" transform="translate(112,167)"/>
<path d="M0 0 C0.33 0 0.66 0 1 0 C1 6.27 1 12.54 1 19 C-6.875 16.75 -6.875 16.75 -10 15 C-10 14.34 -10 13.68 -10 13 C-10.928125 12.7525 -11.85625 12.505 -12.8125 12.25 C-16.16458325 10.93545755 -17.1877803 10.02036616 -19 7 C-17.96875 7.04125 -16.9375 7.0825 -15.875 7.125 C-12.13170373 7.00424851 -9.46265453 6.35127982 -6 5 C-5.67 5.66 -5.34 6.32 -5 7 C-4.34 6.67 -3.68 6.34 -3 6 C-2.34 6.33 -1.68 6.66 -1 7 C-0.67 4.69 -0.34 2.38 0 0 Z " fill="#4F3ABC" transform="translate(140,214)"/>
<path d="M0 0 C0.66 0.33 1.32 0.66 2 1 C1.36191406 1.56847656 0.72382812 2.13695313 0.06640625 2.72265625 C-0.75988281 3.49480469 -1.58617188 4.26695313 -2.4375 5.0625 C-3.26121094 5.81660156 -4.08492188 6.57070312 -4.93359375 7.34765625 C-9.65736624 13.41087274 -8.12886371 22.83204804 -8.09765625 30.15234375 C-8.0962413 31.40761368 -8.09482635 32.66288361 -8.09336853 33.95619202 C-8.08873576 37.27205351 -8.07977139 40.58784452 -8.06866455 43.90368652 C-8.05838292 47.29581091 -8.05385653 50.68794261 -8.04882812 54.08007812 C-8.03782572 60.72007136 -8.02110753 67.36003161 -8 74 C-10.69640246 71.30359754 -10.28060574 69.8745152 -10.33813477 66.10083008 C-10.36057755 64.86226761 -10.38302032 63.62370514 -10.40614319 62.34761047 C-10.41916198 60.98826225 -10.43088381 59.62890109 -10.44140625 58.26953125 C-10.44830915 57.58505102 -10.45521206 56.90057079 -10.46232414 56.19534874 C-10.49819077 52.5692763 -10.52170953 48.94335997 -10.53540039 45.31713867 C-10.55191026 41.58185575 -10.61026319 37.84847915 -10.67854404 34.11383533 C-10.72347282 31.23375706 -10.73690546 28.35412869 -10.74201775 25.47373009 C-10.74988503 24.0978086 -10.76945096 22.72189971 -10.80124092 21.34632301 C-11.03243053 10.63117781 -11.03243053 10.63117781 -8.49606323 6.62387085 C-5.88809232 3.95568333 -3.10027748 2.06685166 0 0 Z " fill="#3F9AFE" transform="translate(95,97)"/>
<path d="M0 0 C1.32 0.33 2.64 0.66 4 1 C3.67 41.59 3.34 82.18 3 124 C2.01 123.67 1.02 123.34 0 123 C0.66 123 1.32 123 2 123 C1.89285388 107.25805389 1.78010934 91.51615854 1.66066074 75.77430153 C1.60533255 68.46543615 1.55185122 61.15656589 1.50268555 53.84765625 C1.45983875 47.47879525 1.41355952 41.10997014 1.36312145 34.74116457 C1.33652449 31.3675101 1.31167153 27.99386273 1.29092598 24.62016678 C1.26693122 20.85821802 1.23686994 17.09636457 1.20532227 13.33447266 C1.1995668 12.21022385 1.19381134 11.08597504 1.18788147 9.92765808 C1.17809265 8.90679611 1.16830383 7.88593414 1.15821838 6.83413696 C1.15176583 5.94368494 1.14531328 5.05323292 1.1386652 4.1357975 C1.13538308 1.94716119 1.13538308 1.94716119 0 0 Z " fill="#503DB1" transform="translate(197,71)"/>
<path d="M0 0 C0.33 0 0.66 0 1 0 C1 9.57 1 19.14 1 29 C6.47464035 27.90507193 9.47286057 26.53610707 13.75 23.125 C16.53295427 20.96742871 19.14693311 19.39687258 22.375 18 C25.22480521 16.62807812 25.85784026 16.25959605 27.4375 13.375 C28.17832103 8.93007384 28.66260521 4.49267793 29 0 C29.33 0 29.66 0 30 0 C30 5.94 30 11.88 30 18 C25.545 19.485 25.545 19.485 21 21 C21 21.66 21 22.32 21 23 C20.3709375 23.30292969 19.741875 23.60585937 19.09375 23.91796875 C14.07699336 26.37345958 9.31568517 28.94447248 4.69140625 32.08203125 C3 33 3 33 0 33 C0 22.11 0 11.22 0 0 Z " fill="#2F5CC7" transform="translate(113,84)"/>
<path d="M0 0 C0.33 0 0.66 0 1 0 C1.33 4.95 1.66 9.9 2 15 C2.99 15 3.98 15 5 15 C4.5020163 18.73487777 4.12508244 20.81237635 2 24 C1.72329506 26.90930342 1.72329506 26.90930342 1.8046875 30.19921875 C1.81113281 31.40771484 1.81757812 32.61621094 1.82421875 33.86132812 C1.84935547 35.7552832 1.84935547 35.7552832 1.875 37.6875 C1.88402344 38.96173828 1.89304687 40.23597656 1.90234375 41.54882812 C1.92594359 44.69940627 1.95886806 47.84960983 2 51 C2.99 51.33 3.98 51.66 5 52 C5 52.33 5 52.66 5 53 C3.02 53 1.04 53 -1 53 C-1.12312964 35.29964106 -0.93118766 17.68018276 0 0 Z " fill="#433FBD" transform="translate(115,60)"/>
<path d="M0 0 C0.33 0 0.66 0 1 0 C1.33 8.25 1.66 16.5 2 25 C3.65 25.33 5.3 25.66 7 26 C7.06574219 25.39027344 7.13148438 24.78054687 7.19921875 24.15234375 C8 22 8 22 10.14453125 20.69140625 C11.46517578 20.13259766 11.46517578 20.13259766 12.8125 19.5625 C17.08730034 17.60119246 19.16237968 15.78349377 22 12 C24.75 11.1875 24.75 11.1875 27 11 C27 11.99 27 12.98 27 14 C25.3203125 15.38671875 25.3203125 15.38671875 23.125 16.6875 C22.40570313 17.12449219 21.68640625 17.56148437 20.9453125 18.01171875 C19 19 19 19 17 19 C17 19.66 17 20.32 17 21 C15.948125 21.556875 14.89625 22.11375 13.8125 22.6875 C10.31674428 24.67902144 7.73831865 27.03348813 5 30 C3.3125 31.8125 3.3125 31.8125 2 33 C1.34 33 0.68 33 0 33 C0 22.11 0 11.22 0 0 Z " fill="#3AA0FC" transform="translate(143,136)"/>
<path d="M0 0 C2 2 2 2 2.24050903 4.17666626 C2.23606781 5.07823456 2.23162659 5.97980286 2.22705078 6.90869141 C2.22689972 7.92959869 2.22674866 8.95050598 2.22659302 10.00234985 C2.21627045 11.10759003 2.20594788 12.2128302 2.1953125 13.3515625 C2.1924826 14.4807309 2.18965271 15.60989929 2.18673706 16.77328491 C2.17551462 20.39062971 2.15040622 24.00772966 2.125 27.625 C2.11497287 30.0729131 2.10584656 32.52083007 2.09765625 34.96875 C2.07556857 40.97925064 2.04207074 46.98960783 2 53 C2.66 53 3.32 53 4 53 C3.67 55.64 3.34 58.28 3 61 C2.01 61 1.02 61 0 61 C0 40.87 0 20.74 0 0 Z " fill="#553FC0" transform="translate(56,122)"/>
<path d="M0 0 C1.32 0 2.64 0 4 0 C4 0.66 4 1.32 4 2 C4.556875 2.12375 5.11375 2.2475 5.6875 2.375 C8.28715346 3.07760904 10.598062 3.76657238 13 5 C13.8125 7.125 13.8125 7.125 14 9 C16.31 9.66 18.62 10.32 21 11 C21 11.66 21 12.32 21 13 C21.86625 13.268125 22.7325 13.53625 23.625 13.8125 C26.93900802 14.97853986 29.88527329 16.38034211 33 18 C33.69996094 18.33386719 34.39992187 18.66773437 35.12109375 19.01171875 C35.84425781 19.35847656 36.56742188 19.70523438 37.3125 20.0625 C38.32763672 20.54396484 38.32763672 20.54396484 39.36328125 21.03515625 C41 22 41 22 42 24 C39.34979514 23.41139757 36.70594517 22.80512738 34.0625 22.1875 C33.30775391 22.02185547 32.55300781 21.85621094 31.77539062 21.68554688 C29.82429587 21.22183377 27.90744213 20.6192456 26 20 C25.67 19.01 25.34 18.02 25 17 C23.2997818 15.75875157 23.2997818 15.75875157 21.18359375 14.73828125 C20.41982422 14.34189453 19.65605469 13.94550781 18.86914062 13.53710938 C18.06669922 13.13298828 17.26425781 12.72886719 16.4375 12.3125 C15.22803711 11.68891602 15.22803711 11.68891602 13.99414062 11.05273438 C12.0003913 10.02636638 10.00243503 9.00928802 8 8 C8 7.34 8 6.68 8 6 C7.01 5.67 6.02 5.34 5 5 C5 4.34 5 3.68 5 3 C2.525 2.01 2.525 2.01 0 1 C0 0.67 0 0.34 0 0 Z " fill="#6D5DC2" transform="translate(137,34)"/>
<path d="M0 0 C0.66 0.33 1.32 0.66 2 1 C1.01 1 0.02 1 -1 1 C-0.67 0.67 -0.34 0.34 0 0 Z M-25 -5 C-24.67 -5 -24.34 -5 -24 -5 C-24 -0.05 -24 4.9 -24 10 C-16.57507037 8.76386851 -16.57507037 8.76386851 -11 4 C-10.01 4 -9.02 4 -8 4 C-8 3.34 -8 2.68 -8 2 C-5.69 2 -3.38 2 -1 2 C-2.32 4.31 -3.64 6.62 -5 9 C-6.09441406 8.66162109 -6.09441406 8.66162109 -7.2109375 8.31640625 C-10.78503828 7.91094103 -11.80366138 8.79968156 -14.625 10.9375 C-18.71298405 14 -18.71298405 14 -22 14 C-25.07070218 11.15252262 -25.96733546 9.67481966 -26.171875 5.44921875 C-26.03265625 4.20785156 -25.8934375 2.96648437 -25.75 1.6875 C-25.62109375 0.43324219 -25.4921875 -0.82101563 -25.359375 -2.11328125 C-25.24078125 -3.06589844 -25.1221875 -4.01851563 -25 -5 Z " fill="#29C8F9" transform="translate(136,108)"/>
<path d="M0 0 C0.33 0 0.66 0 1 0 C1 20.13 1 40.26 1 61 C-2.49397942 60.12650515 -4.68637013 59.19458184 -7.75 57.4375 C-8.54921875 56.98246094 -9.3484375 56.52742188 -10.171875 56.05859375 C-11.07679687 55.53458984 -11.07679687 55.53458984 -12 55 C-8.25 53.875 -8.25 53.875 -6 55 C-6 54.34 -6 53.68 -6 53 C-4.35 53.33 -2.7 53.66 -1 54 C-0.67 36.18 -0.34 18.36 0 0 Z " fill="#D2CAEA" transform="translate(112,23)"/>
<path d="M0 0 C-1.8125 3 -1.8125 3 -4 6 C-4.99 6 -5.98 6 -7 6 C-6.99476318 6.79696289 -6.98952637 7.59392578 -6.98413086 8.41503906 C-6.963341 12.02668469 -6.95033339 15.63831771 -6.9375 19.25 C-6.92912109 20.50425781 -6.92074219 21.75851563 -6.91210938 23.05078125 C-6.90888672 24.25605469 -6.90566406 25.46132812 -6.90234375 26.703125 C-6.89710693 27.81333008 -6.89187012 28.92353516 -6.88647461 30.06738281 C-6.98341507 32.57157379 -7.26769724 34.6181156 -8 37 C-8.66 37 -9.32 37 -10 37 C-10.19830404 32.39210058 -10.34315655 27.78669851 -10.43945312 23.17553711 C-10.47959962 21.60869075 -10.53413434 20.04214258 -10.60351562 18.47631836 C-11.16526714 5.46929238 -11.16526714 5.46929238 -8.25390625 1.79833984 C-3.11702675 -1.55851337 -3.11702675 -1.55851337 0 0 Z " fill="#3D41C1" transform="translate(124,149)"/>
<path d="M0 0 C2.475 0.495 2.475 0.495 5 1 C5 1.66 5 2.32 5 3 C5.99 3.33 6.98 3.66 8 4 C7.12601563 4.41958984 7.12601563 4.41958984 6.234375 4.84765625 C0.21316246 7.79199131 -5.57627735 11.02229695 -11.3359375 14.44921875 C-13.52675124 15.72451648 -15.71698088 16.90177042 -18 18 C-17.75 16.125 -17.75 16.125 -17 14 C-15.66666667 13.33333333 -14.33333333 12.66666667 -13 12 C-12.62875 11.195625 -12.2575 10.39125 -11.875 9.5625 C-8.93545944 5.5451279 -4.69863171 5.08429963 0 4 C0 2.68 0 1.36 0 0 Z " fill="#5350E8" transform="translate(102,83)"/>
<path d="M0 0 C0.66 0 1.32 0 2 0 C2 10.89 2 21.78 2 33 C5.3 31.35 8.6 29.7 12 28 C13.65 27.34 15.3 26.68 17 26 C17 26.66 17 27.32 17 28 C15.35666496 29.03789581 13.68756133 30.03567924 12 31 C11.34 31.66 10.68 32.32 10 33 C7.8359375 33.4140625 7.8359375 33.4140625 5.375 33.625 C4.55773437 33.69976562 3.74046875 33.77453125 2.8984375 33.8515625 C2.27195312 33.90054688 1.64546875 33.94953125 1 34 C0.04956543 22.64570132 -0.11033706 11.38923617 0 0 Z " fill="#4EA3F1" transform="translate(111,84)"/>
<path d="M0 0 C1.98 0.66 3.96 1.32 6 2 C6 2.66 6 3.32 6 4 C6.804375 4.04125 7.60875 4.0825 8.4375 4.125 C13.37732495 5.33829034 16.92433135 8.03834744 21 11 C17.7169902 12.6415049 14.57454967 11.51888624 11 11 C11 10.34 11 9.68 11 9 C8.36 9 5.72 9 3 9 C3 8.01 3 7.02 3 6 C2.34 5.67 1.68 5.34 1 5 C0.375 2.4375 0.375 2.4375 0 0 Z " fill="#6C5CBC" transform="translate(64,57)"/>
<path d="M0 0 C-2.60743447 3.9111517 -4.55515433 3.79461812 -9 5 C-10.6829392 5.97236487 -12.35443434 6.96564444 -14 8 C-14.66 8 -15.32 8 -16 8 C-16 18.89 -16 29.78 -16 41 C-16.33 41 -16.66 41 -17 41 C-17 29.45 -17 17.9 -17 6 C-3.13043478 -1.56521739 -3.13043478 -1.56521739 0 0 Z " fill="#3A59CD" transform="translate(130,145)"/>
<path d="M0 0 C0.33 0 0.66 0 1 0 C1.08706892 3.27066566 1.14041241 6.54103365 1.1875 9.8125 C1.22520508 11.2056543 1.22520508 11.2056543 1.26367188 12.62695312 C1.27817383 13.9659668 1.27817383 13.9659668 1.29296875 15.33203125 C1.31653442 16.56530151 1.31653442 16.56530151 1.34057617 17.82348633 C0.91994942 20.51157769 0.10166407 21.33270976 -2 23 C-3.90234375 23.984375 -3.90234375 23.984375 -5.9375 24.75 C-6.60652344 25.01296875 -7.27554688 25.2759375 -7.96484375 25.546875 C-10.31647491 26.07046274 -11.73617523 25.74954377 -14 25 C-13.34 25 -12.68 25 -12 25 C-11.79375 24.360625 -11.5875 23.72125 -11.375 23.0625 C-10 21 -10 21 -6.875 20.25 C-5.451875 20.12625 -5.451875 20.12625 -4 20 C-3.67 18.68 -3.34 17.36 -3 16 C-2.34 16 -1.68 16 -1 16 C-0.67 10.72 -0.34 5.44 0 0 Z " fill="#556AF3" transform="translate(112,167)"/>
<path d="M0 0 C1.6065676 0.25620684 3.2102483 0.53055871 4.8125 0.8125 C6.15248047 1.03873047 6.15248047 1.03873047 7.51953125 1.26953125 C10 2 10 2 11.40625 3.46875 C13.82983766 5.79729501 16.44137494 6.01256311 19.6875 6.6875 C20.86699219 6.93886719 22.04648438 7.19023437 23.26171875 7.44921875 C24.16535156 7.63097656 25.06898437 7.81273437 26 8 C26 9.65 26 11.3 26 13 C23 12 23 12 22 11 C21.11570312 10.88527344 20.23140625 10.77054688 19.3203125 10.65234375 C15.56121169 9.913791 13.12816565 8.56348808 9.875 6.5625 C5.03151023 3.60951499 5.03151023 3.60951499 0 1 C0 0.67 0 0.34 0 0 Z " fill="#4E40BB" transform="translate(57,187)"/>
<path d="M0 0 C0.33 0 0.66 0 1 0 C1.13947228 11.37473908 0.73570866 22.64906646 0 34 C-2.99924559 31.00075441 -2.5053797 27.53313682 -2.6875 23.5 C-2.73455078 22.71496094 -2.78160156 21.92992187 -2.83007812 21.12109375 C-3.13606973 15.27213946 -3.13606973 15.27213946 -2 13 C-1.61212744 10.79733684 -1.26290505 8.58775432 -0.9375 6.375 C-0.67259766 4.59222656 -0.67259766 4.59222656 -0.40234375 2.7734375 C-0.26957031 1.85820312 -0.13679688 0.94296875 0 0 Z " fill="#4C9AF9" transform="translate(112,151)"/>
<path d="M0 0 C0.66 0.33 1.32 0.66 2 1 C2.22102569 11.2531361 1.9679704 20.89658054 0 31 C-0.33 31 -0.66 31 -1 31 C-1.02689449 28.04160645 -1.04678741 25.08345573 -1.0625 22.125 C-1.07087891 21.28324219 -1.07925781 20.44148438 -1.08789062 19.57421875 C-1.09111328 18.76855469 -1.09433594 17.96289062 -1.09765625 17.1328125 C-1.10289307 16.38918457 -1.10812988 15.64555664 -1.11352539 14.87939453 C-1 13 -1 13 0 11 C-0.33 10.01 -0.66 9.02 -1 8 C-1.125 4.375 -1.125 4.375 -1 1 C-0.67 0.67 -0.34 0.34 0 0 Z " fill="#464BD2" transform="translate(141,66)"/>
<path d="M0 0 C2.33602328 0.99405246 4.66898728 1.99429799 7 3 C7.75667969 3.32484375 8.51335937 3.6496875 9.29296875 3.984375 C18.29219847 7.90363752 18.29219847 7.90363752 21 10 C21 11.32 21 12.64 21 14 C17.6875 13.8125 17.6875 13.8125 14 13 C12.07828158 10.58235424 11 9.11532786 11 6 C8.69 5.67 6.38 5.34 4 5 C3.67 4.01 3.34 3.02 3 2 C2.01 2 1.02 2 0 2 C0 1.34 0 0.68 0 0 Z " fill="#5C4DA7" transform="translate(176,57)"/>
<path d="M0 0 C0.99 0.33 1.98 0.66 3 1 C2.525625 1.680625 2.05125 2.36125 1.5625 3.0625 C-0.24174653 6.45448347 -0.59266861 9.19824038 -1 13 C-1.16113281 13.73605469 -1.32226562 14.47210938 -1.48828125 15.23046875 C-2.13734196 18.74332402 -2.35470267 22.25269331 -2.5625 25.8125 C-2.60568359 26.50537109 -2.64886719 27.19824219 -2.69335938 27.91210938 C-2.79861453 29.60788686 -2.89972863 31.30392052 -3 33 C-3.33 33 -3.66 33 -4 33 C-4.02473868 29.06731133 -4.04287835 25.13465287 -4.05493164 21.2019043 C-4.06242729 19.20685232 -4.07513345 17.21182214 -4.08789062 15.21679688 C-4.09111328 13.96318359 -4.09433594 12.70957031 -4.09765625 11.41796875 C-4.10289307 10.26063232 -4.10812988 9.1032959 -4.11352539 7.91088867 C-4 5 -4 5 -3 2 C-2.01 1.34 -1.02 0.68 0 0 Z " fill="#5284F7" transform="translate(147,67)"/>
<path d="M0 0 C1.32 0 2.64 0 4 0 C4.02505615 0.57967529 4.0501123 1.15935059 4.07592773 1.7565918 C4.19246234 4.40042107 4.31492682 7.04394409 4.4375 9.6875 C4.47681641 10.59951172 4.51613281 11.51152344 4.55664062 12.45117188 C4.61948242 13.78051758 4.61948242 13.78051758 4.68359375 15.13671875 C4.72025146 15.94842529 4.75690918 16.76013184 4.79467773 17.59643555 C5.01037431 20.12144485 5.45899452 22.52600697 6 25 C3.37005663 23.68502831 3.07684519 22.72800782 2 20 C0.80148526 14.44324983 1.18165311 9.55216892 2 4 C-0.64 4.33 -3.28 4.66 -6 5 C-5.34 4.01 -4.68 3.02 -4 2 C-2.68 2 -1.36 2 0 2 C0 1.34 0 0.68 0 0 Z " fill="#514EDF" transform="translate(137,140)"/>
<path d="M0 0 C0.66 0 1.32 0 2 0 C1.67 7.59 1.34 15.18 1 23 C0.01 22.67 -0.98 22.34 -2 22 C-2.05401695 19.08308475 -2.09368066 16.16717276 -2.125 13.25 C-2.14175781 12.425 -2.15851563 11.6 -2.17578125 10.75 C-2.18222656 9.95078125 -2.18867187 9.1515625 -2.1953125 8.328125 C-2.20578613 7.5949707 -2.21625977 6.86181641 -2.22705078 6.10644531 C-1.96777544 3.70103924 -1.19225925 2.08748506 0 0 Z " fill="#444BD2" transform="translate(82,99)"/>
<path d="M0 0 C-16.49294554 9.75185644 -16.49294554 9.75185644 -22.4375 13.125 C-23.09621094 13.49882812 -23.75492187 13.87265625 -24.43359375 14.2578125 C-26 15 -26 15 -28 15 C-27 12 -27 12 -24.34765625 10.39453125 C-23.26355469 9.87246094 -22.17945312 9.35039062 -21.0625 8.8125 C-19.98097656 8.28269531 -18.89945313 7.75289062 -17.78515625 7.20703125 C-15 6 -15 6 -13 6 C-13 5.34 -13 4.68 -13 4 C-11.59248779 3.13083113 -10.1735479 2.28014851 -8.75 1.4375 C-7.96109375 0.96183594 -7.1721875 0.48617187 -6.359375 -0.00390625 C-3.62549585 -1.1581102 -2.74878303 -0.83427086 0 0 Z " fill="#48B6F8" transform="translate(141,136)"/>
<path d="M0 0 C3.3 0 6.6 0 10 0 C10 0.99 10 1.98 10 3 C13.465 4.485 13.465 4.485 17 6 C17 6.99 17 7.98 17 9 C17.33 9.66 17.66 10.32 18 11 C14.78186615 9.40995278 11.60293302 7.75503766 8.4375 6.0625 C7.48746094 5.55847656 6.53742188 5.05445313 5.55859375 4.53515625 C3 3 3 3 0 0 Z " fill="#7D6CD3" transform="translate(145,169)"/>
<path d="M0 0 C4.55540867 1.27127684 7.40905412 2.96150733 11 6 C11.9075 6.515625 12.815 7.03125 13.75 7.5625 C16 9 16 9 17 12 C14.525 11.505 14.525 11.505 12 11 C12 10.34 12 9.68 12 9 C7.49646738 7.24252386 3.82360189 6.80705592 -1 7 C-1 6.34 -1 5.68 -1 5 C-0.34 5 0.32 5 1 5 C0.67 3.35 0.34 1.7 0 0 Z " fill="#6352B9" transform="translate(126,28)"/>
<path d="M0 0 C1.98 0.66 3.96 1.32 6 2 C6 2.66 6 3.32 6 4 C8.97 4.99 11.94 5.98 15 7 C15 7.66 15 8.32 15 9 C15.99 9.33 16.98 9.66 18 10 C17.67 10.99 17.34 11.98 17 13 C15.35 13 13.7 13 12 13 C11.67 12.01 11.34 11.02 11 10 C10.01 9.67 9.02 9.34 8 9 C8 8.01 8 7.02 8 6 C7.01 5.67 6.02 5.34 5 5 C5 4.34 5 3.68 5 3 C3.68 3 2.36 3 1 3 C0.67 2.01 0.34 1.02 0 0 Z " fill="#5F50CF" transform="translate(85,69)"/>
<path d="M0 0 C2 1 2 1 5 3 C6.71571389 3.74032379 8.44635895 4.44663336 10.1875 5.125 C11.53908203 5.65480469 11.53908203 5.65480469 12.91796875 6.1953125 C13.94857422 6.59363281 13.94857422 6.59363281 15 7 C15 7.66 15 8.32 15 9 C15.61875 9.0825 16.2375 9.165 16.875 9.25 C19 10 19 10 20.25 12.0625 C20.4975 12.701875 20.745 13.34125 21 14 C15.48431813 12.46688715 10.97965148 9.81247556 6.125 6.875 C5.34125 6.40707031 4.5575 5.93914062 3.75 5.45703125 C1.83017528 4.30981892 -0.08630561 3.1573993 -2 2 C-1.34 1.34 -0.68 0.68 0 0 Z " fill="#7762CC" transform="translate(79,197)"/>
<path d="M0 0 C0.33 0 0.66 0 1 0 C1.02505615 1.03406982 1.0501123 2.06813965 1.07592773 3.13354492 C1.1703343 6.98213387 1.27047291 10.83055629 1.37231445 14.67895508 C1.41553784 16.34232681 1.45722146 18.00573932 1.49731445 19.66918945 C1.55532332 22.06474068 1.61892829 24.46008908 1.68359375 26.85546875 C1.70030624 27.5952446 1.71701874 28.33502045 1.73423767 29.09721375 C1.81970026 32.09811355 1.95965334 34.8426104 2.70727539 37.7590332 C3 40 3 40 0 44 C0 29.48 0 14.96 0 0 Z " fill="#518EFD" transform="translate(84,134)"/>
<path d="M0 0 C3.375 -0.125 3.375 -0.125 7 0 C7.66 0.66 8.32 1.32 9 2 C10.64991582 2.70710678 12.31562256 3.37943989 14 4 C14 5.32 14 6.64 14 8 C10.2397015 7.41892368 7.46964968 6.34800504 4.1875 4.4375 C3.39730469 3.98246094 2.60710937 3.52742187 1.79296875 3.05859375 C1.20128906 2.70925781 0.60960937 2.35992187 0 2 C0 1.34 0 0.68 0 0 Z " fill="#5E43E8" transform="translate(156,171)"/>
<path d="M0 0 C-0.71027344 0.48210937 -1.42054688 0.96421875 -2.15234375 1.4609375 C-3.07144531 2.09257812 -3.99054688 2.72421875 -4.9375 3.375 C-5.85402344 4.00148437 -6.77054688 4.62796875 -7.71484375 5.2734375 C-10.08387164 6.79771071 -10.08387164 6.79771071 -11 9 C-13.97 9 -16.94 9 -20 9 C-20 8.34 -20 7.68 -20 7 C-18.2984375 6.4121875 -18.2984375 6.4121875 -16.5625 5.8125 C-12.40505569 4.28119934 -8.74599056 2.20991985 -4.98046875 -0.109375 C-3 -1 -3 -1 0 0 Z " fill="#5452E6" transform="translate(165,160)"/>
<path d="M0 0 C0.33 0 0.66 0 1 0 C1 5.94 1 11.88 1 18 C-3.97677524 20.13290367 -6.92997663 21.38170447 -12 22 C-10.71509047 19.43018095 -9.67466098 19.326985 -7.0625 18.25 C-4.09927999 16.80013878 -3.1899319 16.34683216 -1.5625 13.375 C-0.82167897 8.93007384 -0.33739479 4.49267793 0 0 Z " fill="#3B5AD4" transform="translate(142,84)"/>
<path d="M0 0 C7.75 0.75 7.75 0.75 10 3 C10.94875 3.28875 11.8975 3.5775 12.875 3.875 C16.22390578 5.08060608 17.77489071 6.26140395 20 9 C20 9.66 20 10.32 20 11 C12.97689256 8.36633471 6.46492271 4.77120492 0 1 C0 0.67 0 0.34 0 0 Z " fill="#7665C1" transform="translate(167,182)"/>
<path d="M0 0 C-1.93142676 2.89714014 -2.65656491 3.58406574 -5.5625 5.125 C-8.74546246 6.65140702 -8.74546246 6.65140702 -10 8 C-12.33297433 8.04092937 -14.66705225 8.04241723 -17 8 C-16.67 7.34 -16.34 6.68 -16 6 C-13.4375 5.375 -13.4375 5.375 -11 5 C-11 4.34 -11 3.68 -11 3 C-7.28026121 0.15549386 -4.62609198 -0.3227506 0 0 Z " fill="#3FAAF7" transform="translate(145,102)"/>
<path d="M0 0 C-0.5 1.875 -0.5 1.875 -2 4 C-4.06607148 4.66578187 -6.08032782 5.06536921 -8.22265625 5.41015625 C-9.10244141 5.70212891 -9.10244141 5.70212891 -10 6 C-10.33 6.99 -10.66 7.98 -11 9 C-11.66 6.69 -12.32 4.38 -13 2 C-8.46298506 0.54815522 -4.81938524 -0.23509196 0 0 Z " fill="#585FF7" transform="translate(154,63)"/>
<path d="M0 0 C4.34885027 0.65891671 8.09420622 1.97199169 12 4 C12.9375 6.1875 12.9375 6.1875 13 8 C11.35 8 9.7 8 8 8 C7.67 6.68 7.34 5.36 7 4 C5.35 4 3.7 4 2 4 C1.67 4.99 1.34 5.98 1 7 C0.67 4.69 0.34 2.38 0 0 Z " fill="#5748A5" transform="translate(114,23)"/>
<path d="M0 0 C3.63 0 7.26 0 11 0 C11 0.66 11 1.32 11 2 C10.01 2.33 9.02 2.66 8 3 C8.99 3.33 9.98 3.66 11 4 C11 5.32 11 6.64 11 8 C11.639375 8.12375 12.27875 8.2475 12.9375 8.375 C13.618125 8.58125 14.29875 8.7875 15 9 C15.33 9.66 15.66 10.32 16 11 C13.0625 10.1875 13.0625 10.1875 10 9 C9.67 8.01 9.34 7.02 9 6 C8.05125 5.690625 7.1025 5.38125 6.125 5.0625 C3 4 3 4 0 0 Z " fill="#513FB3" transform="translate(121,221)"/>
<path d="M0 0 C-2.50867002 2.50867002 -4.63003309 2.8766777 -8 4 C-9.36312657 4.66955923 -10.71709571 5.35800664 -12.0625 6.0625 C-15.02989579 7.5946103 -17.65095514 8.58136939 -21 9 C-19.625 7.5 -19.625 7.5 -18 6 C-17.34 6 -16.68 6 -16 6 C-16 5.34 -16 4.68 -16 4 C-14.02 3.67 -12.04 3.34 -10 3 C-10 2.34 -10 1.68 -10 1 C-6.42181037 -1.33958553 -4.07775191 -0.9267618 0 0 Z " fill="#1FCDFB" transform="translate(144,133)"/>
<path d="M0 0 C0.66 0 1.32 0 2 0 C3.70159453 15.92938497 3.70159453 15.92938497 0 22 C-0.99 21.67 -1.98 21.34 -3 21 C-2.01 19.515 -2.01 19.515 -1 18 C-0.63648496 15.97457852 -0.63648496 15.97457852 -0.5859375 13.76953125 C-0.54726562 12.96708984 -0.50859375 12.16464844 -0.46875 11.33789062 C-0.4378125 10.50451172 -0.406875 9.67113281 -0.375 8.8125 C-0.33632812 7.96751953 -0.29765625 7.12253906 -0.2578125 6.25195312 C-0.16363721 4.16832476 -0.08073325 2.08419247 0 0 Z " fill="#444ED6" transform="translate(173,134)"/>
<path d="M0 0 C0.33 0 0.66 0 1 0 C1.33 8.91 1.66 17.82 2 27 C3.32 27.66 4.64 28.32 6 29 C4.71034824 30.37562854 3.37310707 31.70766393 2 33 C1.34 33 0.68 33 0 33 C0 22.11 0 11.22 0 0 Z " fill="#4CA0F3" transform="translate(143,136)"/>
<path d="M0 0 C-0.97582031 0.42410156 -1.95164062 0.84820312 -2.95703125 1.28515625 C-4.24274365 1.87639626 -5.52786981 2.46891226 -6.8125 3.0625 C-7.77639648 3.47532227 -7.77639648 3.47532227 -8.75976562 3.89648438 C-12.42093547 5.62273544 -14.32530046 6.95695107 -15.94921875 10.74609375 C-16.29597656 11.81988281 -16.64273438 12.89367187 -17 14 C-17.33 14 -17.66 14 -18 14 C-18.125 8.25 -18.125 8.25 -17 6 C-16.34 6 -15.68 6 -15 6 C-15 5.34 -15 4.68 -15 4 C-13.06767179 3.13419713 -11.12892806 2.28270059 -9.1875 1.4375 C-8.10855469 0.96183594 -7.02960938 0.48617187 -5.91796875 -0.00390625 C-3 -1 -3 -1 0 0 Z " fill="#2CBFFA" transform="translate(128,142)"/>
<path d="M0 0 C-2.24923704 1.2930106 -4.49935185 2.58444977 -6.75 3.875 C-7.38421875 4.23980469 -8.0184375 4.60460937 -8.671875 4.98046875 C-11.74250368 6.7396831 -14.80851875 8.46873374 -18 10 C-17.9296875 8.23828125 -17.9296875 8.23828125 -17 6 C-14.69833387 4.52540316 -12.57600184 3.34450985 -10.125 2.1875 C-9.48691406 1.86330078 -8.84882812 1.53910156 -8.19140625 1.20507812 C-3.39667894 -1.13222631 -3.39667894 -1.13222631 0 0 Z " fill="#475CE7" transform="translate(102,91)"/>
<path d="M0 0 C1.65 0.33 3.3 0.66 5 1 C5.33 2.98 5.66 4.96 6 7 C4.55903414 6.57405412 3.12231288 6.13373367 1.6875 5.6875 C0.88699219 5.44386719 0.08648437 5.20023437 -0.73828125 4.94921875 C-3.09964573 3.95817977 -4.33879993 2.91925057 -6 1 C-3.03 1.495 -3.03 1.495 0 2 C0 1.34 0 0.68 0 0 Z " fill="#E6DAF7" transform="translate(106,76)"/>
<path d="M0 0 C0.33 0 0.66 0 1 0 C1 4.95 1 9.9 1 15 C3.64 14.67 6.28 14.34 9 14 C7.71937515 15.7074998 6.38232443 17.37373596 5 19 C3 19 3 19 0.859375 16.95703125 C-1.52730462 13.16140841 -1.24421149 11.0942191 -0.75 6.6875 C-0.62109375 5.43324219 -0.4921875 4.17898437 -0.359375 2.88671875 C-0.24078125 1.93410156 -0.1221875 0.98148437 0 0 Z " fill="#38C6FC" transform="translate(111,103)"/>
<path d="M0 0 C0.33 0 0.66 0 1 0 C1 3.96 1 7.92 1 12 C-5.0546875 15.22265625 -5.0546875 15.22265625 -7 16 C-7.66 15.67 -8.32 15.34 -9 15 C-7.88625 14.38125 -6.7725 13.7625 -5.625 13.125 C-2.17771934 10.72234985 -1.34714998 8.78511654 -0.5625 4.6875 C-0.34631739 3.12870958 -0.14905844 1.56663464 0 0 Z " fill="#5389FB" transform="translate(171,141)"/>
<path d="M0 0 C0.66 0.33 1.32 0.66 2 1 C1.01 1 0.02 1 -1 1 C-0.67 0.67 -0.34 0.34 0 0 Z M-1 3 C-2.98 5.97 -2.98 5.97 -5 9 C-7.31 8.67 -9.62 8.34 -12 8 C-9.2171527 3.82572905 -6.00061399 1.33312867 -1 3 Z " fill="#18CAF8" transform="translate(136,108)"/>
<path d="M0 0 C0.99 0 1.98 0 3 0 C3.33 0.66 3.66 1.32 4 2 C5.134375 2.28875 6.26875 2.5775 7.4375 2.875 C11 4 11 4 12.4375 6.125 C12.7159375 7.053125 12.7159375 7.053125 13 8 C12.34 8 11.68 8 11 8 C10.67 8.66 10.34 9.32 10 10 C7 8 7 8 6 5 C4.35178756 3.96986723 2.68496298 2.96885372 1 2 C0.67 1.34 0.34 0.68 0 0 Z " fill="#503AAF" transform="translate(176,59)"/>
<path d="M0 0 C2.475 0.495 2.475 0.495 5 1 C5.33 2.32 5.66 3.64 6 5 C6.99 5 7.98 5 9 5 C9 5.66 9 6.32 9 7 C4.545 6.01 4.545 6.01 0 5 C0 3.35 0 1.7 0 0 Z " fill="#5037CB" transform="translate(70,65)"/>
<path d="M0 0 C0.33 0.99 0.66 1.98 1 3 C-0.1446875 3.1546875 -0.1446875 3.1546875 -1.3125 3.3125 C-4.17059424 4.04364039 -5.15742885 4.76951913 -7 7 C-7 4.69 -7 2.38 -7 0 C-4.3333581 -1.33332095 -2.83319697 -0.67102033 0 0 Z " fill="#503BB0" transform="translate(64,57)"/>
<path d="M0 0 C1.32 0 2.64 0 4 0 C4 0.66 4 1.32 4 2 C4.556875 2.12375 5.11375 2.2475 5.6875 2.375 C8.2618003 3.07075684 10.59880886 3.83185296 13 5 C13.33 5.99 13.66 6.98 14 8 C12.02 8 10.04 8 8 8 C8 7.34 8 6.68 8 6 C7.01 5.67 6.02 5.34 5 5 C5 4.34 5 3.68 5 3 C2.525 2.01 2.525 2.01 0 1 C0 0.67 0 0.34 0 0 Z " fill="#A093DB" transform="translate(137,34)"/>
<path d="M0 0 C0.66 0 1.32 0 2 0 C3.34383934 4.62877994 3.10850248 9.33465044 2 14 C1.01 14.495 1.01 14.495 0 15 C0 10.05 0 5.1 0 0 Z " fill="#44A5FE" transform="translate(144,85)"/>
<path d="M0 0 C5.3576845 2.27986574 10.68376389 4.62517344 16 7 C16 7.33 16 7.66 16 8 C14.35 8 12.7 8 11 8 C11 7.34 11 6.68 11 6 C8.69 5.67 6.38 5.34 4 5 C3.67 4.01 3.34 3.02 3 2 C2.01 2 1.02 2 0 2 C0 1.34 0 0.68 0 0 Z " fill="#695BA8" transform="translate(176,57)"/>
<path d="M0 0 C1.98 0.66 3.96 1.32 6 2 C6 2.66 6 3.32 6 4 C8.97 4.99 11.94 5.98 15 7 C13.02 7.99 13.02 7.99 11 9 C10.01 8.67 9.02 8.34 8 8 C8 7.34 8 6.68 8 6 C7.01 5.67 6.02 5.34 5 5 C5 4.34 5 3.68 5 3 C3.68 3 2.36 3 1 3 C0.67 2.01 0.34 1.02 0 0 Z " fill="#7B69C7" transform="translate(85,69)"/>
<path d="M0 0 C0.99 0 1.98 0 3 0 C2.34 5.94 1.68 11.88 1 18 C0.67 18 0.34 18 0 18 C0 12.06 0 6.12 0 0 Z " fill="#4E3D9D" transform="translate(55,55)"/>
<path d="M0 0 C9.17286652 1.17286652 9.17286652 1.17286652 12.625 4.625 C13.07875 5.40875 13.5325 6.1925 14 7 C10.27792613 7 8.53604411 5.82035432 5.3125 4 C4.31863281 3.443125 3.32476562 2.88625 2.30078125 2.3125 C1.54152344 1.879375 0.78226563 1.44625 0 1 C0 0.67 0 0.34 0 0 Z " fill="#8276C0" transform="translate(57,187)"/>
<path d="M0 0 C2 1 2 1 5 3 C6.546875 3.99 6.546875 3.99 8.125 5 C11 7 11 7 12 9 C6.68972746 7.53967505 2.53669968 5.01679014 -2 2 C-1.34 1.34 -0.68 0.68 0 0 Z " fill="#7F77CC" transform="translate(79,197)"/>
<path d="M0 0 C0.66 0 1.32 0 2 0 C2.33 0.99 2.66 1.98 3 3 C-0.8726362 5.46440486 -4.76960042 7.25807076 -9 9 C-8.375 7.0625 -8.375 7.0625 -7 5 C-3.875 4.25 -3.875 4.25 -1 4 C-0.67 2.68 -0.34 1.36 0 0 Z " fill="#5373FD" transform="translate(109,183)"/>
<path d="M0 0 C0.33 1.32 0.66 2.64 1 4 C-1.3125 5.125 -1.3125 5.125 -4 6 C-4.99 5.34 -5.98 4.68 -7 4 C-5 1 -5 1 -2.375 0.3125 C-1.59125 0.209375 -0.8075 0.10625 0 0 Z " fill="#5E45E4" transform="translate(139,96)"/>
<path d="M0 0 C4.55384615 -0.36923077 4.55384615 -0.36923077 6.8125 1.5 C7.204375 1.995 7.59625 2.49 8 3 C8.33 2.34 8.66 1.68 9 1 C9 2.65 9 4.3 9 6 C5.9168649 4.80100302 2.93720508 3.52299523 0 2 C0 1.34 0 0.68 0 0 Z " fill="#4F3FA0" transform="translate(132,227)"/>
<path d="M0 0 C-1 2 -1 2 -2.9609375 2.88671875 C-4.15589844 3.28310547 -4.15589844 3.28310547 -5.375 3.6875 C-6.16648437 3.95949219 -6.95796875 4.23148438 -7.7734375 4.51171875 C-10 5 -10 5 -13 4 C-9.38656695 0.38656695 -4.97659681 -0.29274099 0 0 Z " fill="#5F5BF7" transform="translate(101,193)"/>
<path d="M0 0 C3.3 0 6.6 0 10 0 C10 0.99 10 1.98 10 3 C6.6875 3.1875 6.6875 3.1875 3 3 C2.01 2.01 1.02 1.02 0 0 Z " fill="#6D59D6" transform="translate(145,169)"/>
<path d="M0 0 C0.66 0.33 1.32 0.66 2 1 C0.1875 4 0.1875 4 -2 7 C-2.99 7 -3.98 7 -5 7 C-5 8.32 -5 9.64 -5 11 C-5.66 11 -6.32 11 -7 11 C-5.72278474 6.00724943 -3.82669043 3.42388092 0 0 Z " fill="#4B43C9" transform="translate(122,148)"/>
<path d="M0 0 C0.66 0.33 1.32 0.66 2 1 C1.01 1.33 0.02 1.66 -1 2 C-1 2.99 -1 3.98 -1 5 C-6.445 6.485 -6.445 6.485 -12 8 C-9.43564561 5.43564561 -7.53445956 3.98470552 -4.4375 2.25 C-3.65246094 1.80140625 -2.86742187 1.3528125 -2.05859375 0.890625 C-1.37925781 0.59671875 -0.69992188 0.3028125 0 0 Z " fill="#3464D5" transform="translate(138,137)"/>
<path d="M0 0 C1.98 0.66 3.96 1.32 6 2 C6 2.66 6 3.32 6 4 C6.66 4 7.32 4 8 4 C8 4.66 8 5.32 8 6 C5.69 5.67 3.38 5.34 1 5 C0.67 3.35 0.34 1.7 0 0 Z " fill="#6A5BAC" transform="translate(64,57)"/>
<path d="M0 0 C1.98 0 3.96 0 6 0 C6 0.66 6 1.32 6 2 C6.928125 2.12375 6.928125 2.12375 7.875 2.25 C10 3 10 3 11.25 5.0625 C11.4975 5.701875 11.745 6.34125 12 7 C8 5 4 3 0 1 C0 0.67 0 0.34 0 0 Z " fill="#7C6EC2" transform="translate(112,218)"/>
<path d="M0 0 C2.0625 0.4375 2.0625 0.4375 4 1 C3.67 1.99 3.34 2.98 3 4 C2.34 4 1.68 4 1 4 C0.0409375 4.495 0.0409375 4.495 -0.9375 5 C-3 6 -3 6 -6 6 C-6 5.34 -6 4.68 -6 4 C-4.36368108 2.95107762 -2.69514137 1.95093297 -1 1 C-0.67 0.67 -0.34 0.34 0 0 Z " fill="#5A4AE9" transform="translate(113,186)"/>
<path d="M0 0 C3.94120709 0.56302958 6.7508723 1.6791945 10 4 C10 4.66 10 5.32 10 6 C5.16743695 5.58578031 3.17320782 3.53586014 0 0 Z " fill="#5440AC" transform="translate(184,189)"/>
<path d="M0 0 C5.66153846 1.47692308 5.66153846 1.47692308 7.375 4.125 C7.684375 5.053125 7.684375 5.053125 8 6 C6.68 6 5.36 6 4 6 C4 5.34 4 4.68 4 4 C2.68 3.34 1.36 2.68 0 2 C0 1.34 0 0.68 0 0 Z " fill="#5A57BE" transform="translate(103,80)"/>
<path d="M0 0 C0 1.32 0 2.64 0 4 C0.639375 4.12375 1.27875 4.2475 1.9375 4.375 C2.618125 4.58125 3.29875 4.7875 4 5 C4.33 5.66 4.66 6.32 5 7 C2.0625 6.1875 2.0625 6.1875 -1 5 C-1.33 4.01 -1.66 3.02 -2 2 C-4.00016466 0.79117904 -4.00016466 0.79117904 -6 0 C-3.50907189 -1.24546405 -2.58919267 -0.7767578 0 0 Z " fill="#6C5DB4" transform="translate(132,225)"/>
<path d="M0 0 C2.33944736 0.28730055 4.6739143 0.61936779 7 1 C7 2.32 7 3.64 7 5 C5.68 5 4.36 5 3 5 C2.67 4.34 2.34 3.68 2 3 C1.01 2.34 0.02 1.68 -1 1 C-0.67 0.67 -0.34 0.34 0 0 Z " fill="#4D3F97" transform="translate(194,194)"/>
<path d="M0 0 C4.51478398 0.53115106 7.34666857 2.36620292 11 5 C9.375 5.75 9.375 5.75 7 6 C1.4109589 2.82191781 1.4109589 2.82191781 0 0 Z " fill="#634FCA" transform="translate(160,176)"/>
<path d="M0 0 C0.33 0 0.66 0 1 0 C1.41846009 1.57750424 1.80896389 3.16244248 2.1875 4.75 C2.51814453 6.07257813 2.51814453 6.07257813 2.85546875 7.421875 C3 10 3 10 0 14 C0 9.38 0 4.76 0 0 Z " fill="#567BFD" transform="translate(84,164)"/>
<path d="M0 0 C0.66 0.33 1.32 0.66 2 1 C2 1.99 2 2.98 2 4 C-0.31 4.66 -2.62 5.32 -5 6 C-4.1875 3.5625 -4.1875 3.5625 -3 1 C-2.01 0.67 -1.02 0.34 0 0 Z " fill="#4D56E8" transform="translate(170,153)"/>
<path d="M0 0 C0.99 0.33 1.98 0.66 3 1 C3 1.99 3 2.98 3 4 C4.98 4 6.96 4 9 4 C6.42786866 5.61949011 5.32330841 6.04408751 2.25 5.625 C1.5075 5.41875 0.765 5.2125 0 5 C0 3.35 0 1.7 0 0 Z " fill="#5C4ADA" transform="translate(160,50)"/>
<path d="M0 0 C0.99 0 1.98 0 3 0 C2.75 2.375 2.75 2.375 2 5 C-0.0625 6.3125 -0.0625 6.3125 -2 7 C-1.34 4.69 -0.68 2.38 0 0 Z " fill="#5239BD" transform="translate(116,78)"/>
<path d="M0 0 C3.37503669 1.1858237 5.64722731 2.27573689 8 5 C7.01 5.33 6.02 5.66 5 6 C4.34 5.67 3.68 5.34 3 5 C3 4.34 3 3.68 3 3 C2.01 2.67 1.02 2.34 0 2 C0 1.34 0 0.68 0 0 Z " fill="#5B49B9" transform="translate(135,34)"/>
<path d="M0 0 C3.37462715 0.54723683 5.08235 1.0549 8 3 C7.67 3.66 7.34 4.32 7 5 C3.34683329 3.75023244 2.21934164 3.32901247 0 0 Z " fill="#6A5AB7" transform="translate(70,193)"/>
<path d="M0 0 C0.33 0 0.66 0 1 0 C1.06058594 0.83144531 1.12117188 1.66289062 1.18359375 2.51953125 C1.26738281 3.60621094 1.35117187 4.69289062 1.4375 5.8125 C1.51871094 6.89144531 1.59992187 7.97039062 1.68359375 9.08203125 C1.90212461 12.05989905 1.90212461 12.05989905 3 15 C2.01 14.67 1.02 14.34 0 14 C0 9.38 0 4.76 0 0 Z " fill="#5445A1" transform="translate(55,171)"/>
<path d="M0 0 C3 0 3 0 4.6875 1.375 C6 3 6 3 6 5 C6.99 5.33 7.98 5.66 9 6 C6.75 6.25 6.75 6.25 4 6 C1.6875 4.125 1.6875 4.125 0 2 C0 1.34 0 0.68 0 0 Z " fill="#5A42C3" transform="translate(87,72)"/>
<path d="M0 0 C-0.33 0.99 -0.66 1.98 -1 3 C-2.98 3.33 -4.96 3.66 -7 4 C-7.33 4.99 -7.66 5.98 -8 7 C-7.75 4.625 -7.75 4.625 -7 2 C-4.43689172 0.2058242 -3.16880694 0 0 0 Z " fill="#5871FC" transform="translate(151,65)"/>
<path d="M0 0 C1.65 0.33 3.3 0.66 5 1 C3.71937515 2.7074998 2.38232443 4.37373596 1 6 C0.34 6 -0.32 6 -1 6 C-0.67 4.02 -0.34 2.04 0 0 Z " fill="#6391F5" transform="translate(144,163)"/>
<path d="M0 0 C0.598125 0.20625 1.19625 0.4125 1.8125 0.625 C-3.9375 4.625 -3.9375 4.625 -6.1875 4.625 C-5.03076352 1.15479057 -3.91311293 -0.67081936 0 0 Z " fill="#2856C0" transform="translate(120.1875,148.375)"/>
<path d="M0 0 C1.32 0.66 2.64 1.32 4 2 C2.02 3.32 0.04 4.64 -2 6 C-2.66 5.67 -3.32 5.34 -4 5 C-2.68 3.35 -1.36 1.7 0 0 Z " fill="#5849EB" transform="translate(86,93)"/>
<path d="M0 0 C0.66 0.66 1.32 1.32 2 2 C1.72793135 3.6777567 1.38499891 5.34450469 1 7 C0.9629721 8.6662553 0.95240038 10.33401319 1 12 C0.01 12.495 0.01 12.495 -1 13 C-1.02686553 11.02090602 -1.04633375 9.04171029 -1.0625 7.0625 C-1.07410156 5.96035156 -1.08570313 4.85820313 -1.09765625 3.72265625 C-1 1 -1 1 0 0 Z " fill="#4C91FD" transform="translate(145,72)"/>
<path d="M0 0 C0.33 0.66 0.66 1.32 1 2 C1.66 2 2.32 2 3 2 C3.33 3.32 3.66 4.64 4 6 C2.02 5.34 0.04 4.68 -2 4 C-1.34 2.68 -0.68 1.36 0 0 Z " fill="#E7E0F7" transform="translate(60,50)"/>
<path d="M0 0 C0.66 0.33 1.32 0.66 2 1 C-0.77280706 4.08089673 -3.06326356 5.68775452 -7 7 C-7 6.01 -7 5.02 -7 4 C-5.824375 3.566875 -5.824375 3.566875 -4.625 3.125 C-1.90328368 2.15087746 -1.90328368 2.15087746 0 0 Z " fill="#359FF9" transform="translate(105,91)"/>
</svg>
